<svg xmlns="http://www.w3.org/2000/svg" xmlns:xlink="http://www.w3.org/1999/xlink" width="200" zoomAndPan="magnify" viewBox="0 0 150 30.000001" height="40" preserveAspectRatio="xMidYMid meet" version="1.0"><defs><g/><clipPath id="id1"><path d="M 2.417969 0 L 147.578125 0 L 147.578125 29.03125 L 2.417969 29.03125 Z M 2.417969 0 " clip-rule="nonzero"/></clipPath><clipPath id="id2"><path d="M 73.441406 7.414062 L 86.503906 7.414062 L 86.503906 21.929688 L 73.441406 21.929688 Z M 73.441406 7.414062 " clip-rule="nonzero"/></clipPath></defs><g clip-path="url(#id1)"><path fill="#ffffff" d="M 2.417969 0 L 147.582031 0 L 147.582031 36.289062 L 2.417969 36.289062 Z M 2.417969 0 " fill-opacity="1" fill-rule="nonzero"/><path fill="#000000" d="M 2.417969 0 L 147.582031 0 L 147.582031 29.03125 L 2.417969 29.03125 Z M 2.417969 0 " fill-opacity="1" fill-rule="nonzero"/><path fill="#ffffff" d="M 2.417969 0 L 147.582031 0 L 147.582031 29.03125 L 2.417969 29.03125 Z M 2.417969 0 " fill-opacity="1" fill-rule="nonzero"/><path fill="#000000" d="M 2.417969 0 L 147.582031 0 L 147.582031 29.03125 L 2.417969 29.03125 Z M 2.417969 0 " fill-opacity="1" fill-rule="nonzero"/></g><g fill="#ffffff" fill-opacity="1"><g transform="translate(29.274191, 19.233873)"><g><path d="M 5.40625 -2.390625 C 5.40625 -1.628906 5.179688 -1.039062 4.734375 -0.625 C 4.296875 -0.207031 3.722656 0 3.015625 0 L 0.828125 0 C 0.785156 0 0.75 -0.015625 0.71875 -0.046875 C 0.6875 -0.078125 0.671875 -0.113281 0.671875 -0.15625 L 0.671875 -8.5625 C 0.671875 -8.601562 0.6875 -8.632812 0.71875 -8.65625 C 0.75 -8.6875 0.785156 -8.703125 0.828125 -8.703125 L 2.78125 -8.703125 C 3.570312 -8.703125 4.191406 -8.503906 4.640625 -8.109375 C 5.085938 -7.710938 5.3125 -7.132812 5.3125 -6.375 C 5.3125 -5.519531 5.007812 -4.910156 4.40625 -4.546875 C 4.363281 -4.515625 4.351562 -4.488281 4.375 -4.46875 C 4.695312 -4.257812 4.945312 -3.976562 5.125 -3.625 C 5.3125 -3.28125 5.40625 -2.867188 5.40625 -2.390625 Z M 2.171875 -7.46875 C 2.128906 -7.46875 2.109375 -7.445312 2.109375 -7.40625 L 2.109375 -5.09375 C 2.109375 -5.050781 2.128906 -5.03125 2.171875 -5.03125 L 2.8125 -5.03125 C 3.15625 -5.03125 3.421875 -5.128906 3.609375 -5.328125 C 3.796875 -5.535156 3.890625 -5.832031 3.890625 -6.21875 C 3.890625 -6.613281 3.796875 -6.921875 3.609375 -7.140625 C 3.421875 -7.359375 3.15625 -7.46875 2.8125 -7.46875 Z M 2.890625 -1.25 C 3.222656 -1.25 3.484375 -1.363281 3.671875 -1.59375 C 3.867188 -1.832031 3.96875 -2.164062 3.96875 -2.59375 C 3.96875 -3.019531 3.867188 -3.351562 3.671875 -3.59375 C 3.484375 -3.84375 3.222656 -3.96875 2.890625 -3.96875 L 2.171875 -3.96875 C 2.128906 -3.96875 2.109375 -3.945312 2.109375 -3.90625 L 2.109375 -1.3125 C 2.109375 -1.269531 2.128906 -1.25 2.171875 -1.25 Z M 2.890625 -1.25 "/></g></g></g><g fill="#ffffff" fill-opacity="1"><g transform="translate(35.016552, 19.233873)"><g><path d="M 4.875 -2.796875 C 4.875 -2.753906 4.859375 -2.71875 4.828125 -2.6875 C 4.796875 -2.664062 4.757812 -2.65625 4.71875 -2.65625 L 1.984375 -2.65625 C 1.941406 -2.65625 1.921875 -2.632812 1.921875 -2.59375 L 1.921875 -2.03125 C 1.921875 -1.769531 1.988281 -1.554688 2.125 -1.390625 C 2.269531 -1.222656 2.453125 -1.140625 2.671875 -1.140625 C 2.859375 -1.140625 3.019531 -1.195312 3.15625 -1.3125 C 3.300781 -1.4375 3.394531 -1.597656 3.4375 -1.796875 C 3.457031 -1.878906 3.507812 -1.921875 3.59375 -1.921875 L 4.703125 -1.859375 C 4.742188 -1.859375 4.773438 -1.84375 4.796875 -1.8125 C 4.828125 -1.789062 4.84375 -1.753906 4.84375 -1.703125 C 4.78125 -1.117188 4.566406 -0.671875 4.203125 -0.359375 C 3.835938 -0.0546875 3.328125 0.09375 2.671875 0.09375 C 1.992188 0.09375 1.457031 -0.0820312 1.0625 -0.4375 C 0.664062 -0.800781 0.46875 -1.296875 0.46875 -1.921875 L 0.46875 -4.4375 C 0.46875 -5.039062 0.664062 -5.523438 1.0625 -5.890625 C 1.457031 -6.265625 1.992188 -6.453125 2.671875 -6.453125 C 3.347656 -6.453125 3.882812 -6.265625 4.28125 -5.890625 C 4.675781 -5.523438 4.875 -5.039062 4.875 -4.4375 Z M 2.671875 -5.21875 C 2.453125 -5.21875 2.269531 -5.132812 2.125 -4.96875 C 1.988281 -4.800781 1.921875 -4.585938 1.921875 -4.328125 L 1.921875 -3.765625 C 1.921875 -3.722656 1.941406 -3.703125 1.984375 -3.703125 L 3.390625 -3.703125 C 3.421875 -3.703125 3.4375 -3.722656 3.4375 -3.765625 L 3.4375 -4.328125 C 3.4375 -4.585938 3.363281 -4.800781 3.21875 -4.96875 C 3.082031 -5.132812 2.898438 -5.21875 2.671875 -5.21875 Z M 2.671875 -5.21875 "/></g></g></g><g fill="#ffffff" fill-opacity="1"><g transform="translate(40.311453, 19.233873)"><g><path d="M 3.296875 -6.453125 C 3.835938 -6.453125 4.242188 -6.269531 4.515625 -5.90625 C 4.796875 -5.550781 4.9375 -5.039062 4.9375 -4.375 L 4.9375 -0.15625 C 4.9375 -0.113281 4.921875 -0.078125 4.890625 -0.046875 C 4.859375 -0.015625 4.820312 0 4.78125 0 L 3.640625 0 C 3.597656 0 3.5625 -0.015625 3.53125 -0.046875 C 3.507812 -0.078125 3.5 -0.113281 3.5 -0.15625 L 3.5 -4.265625 C 3.5 -4.566406 3.4375 -4.800781 3.3125 -4.96875 C 3.1875 -5.132812 3.007812 -5.21875 2.78125 -5.21875 C 2.53125 -5.21875 2.335938 -5.128906 2.203125 -4.953125 C 2.078125 -4.773438 2.015625 -4.535156 2.015625 -4.234375 L 2.015625 -0.15625 C 2.015625 -0.113281 2 -0.078125 1.96875 -0.046875 C 1.9375 -0.015625 1.898438 0 1.859375 0 L 0.71875 0 C 0.675781 0 0.640625 -0.015625 0.609375 -0.046875 C 0.585938 -0.078125 0.578125 -0.113281 0.578125 -0.15625 L 0.578125 -6.203125 C 0.578125 -6.242188 0.585938 -6.28125 0.609375 -6.3125 C 0.640625 -6.34375 0.675781 -6.359375 0.71875 -6.359375 L 1.859375 -6.359375 C 1.898438 -6.359375 1.9375 -6.34375 1.96875 -6.3125 C 2 -6.28125 2.015625 -6.242188 2.015625 -6.203125 L 2.015625 -5.953125 C 2.015625 -5.929688 2.023438 -5.914062 2.046875 -5.90625 C 2.066406 -5.90625 2.085938 -5.921875 2.109375 -5.953125 C 2.390625 -6.285156 2.785156 -6.453125 3.296875 -6.453125 Z M 3.296875 -6.453125 "/></g></g></g><g fill="#ffffff" fill-opacity="1"><g transform="translate(45.767936, 19.233873)"><g><path d="M 1.296875 -7.21875 C 1.035156 -7.21875 0.820312 -7.300781 0.65625 -7.46875 C 0.488281 -7.632812 0.40625 -7.847656 0.40625 -8.109375 C 0.40625 -8.367188 0.488281 -8.582031 0.65625 -8.75 C 0.820312 -8.914062 1.035156 -9 1.296875 -9 C 1.546875 -9 1.753906 -8.914062 1.921875 -8.75 C 2.085938 -8.582031 2.171875 -8.367188 2.171875 -8.109375 C 2.171875 -7.847656 2.085938 -7.632812 1.921875 -7.46875 C 1.753906 -7.300781 1.546875 -7.21875 1.296875 -7.21875 Z M -0.4375 2.546875 C -0.53125 2.546875 -0.578125 2.5 -0.578125 2.40625 L -0.578125 1.46875 C -0.578125 1.363281 -0.53125 1.3125 -0.4375 1.3125 C -0.0703125 1.3125 0.1875 1.210938 0.34375 1.015625 C 0.5 0.828125 0.578125 0.554688 0.578125 0.203125 L 0.578125 -6.203125 C 0.578125 -6.242188 0.585938 -6.28125 0.609375 -6.3125 C 0.640625 -6.34375 0.675781 -6.359375 0.71875 -6.359375 L 1.859375 -6.359375 C 1.898438 -6.359375 1.9375 -6.34375 1.96875 -6.3125 C 2 -6.28125 2.015625 -6.242188 2.015625 -6.203125 L 2.015625 0.203125 C 2.015625 0.753906 1.957031 1.191406 1.84375 1.515625 C 1.738281 1.847656 1.507812 2.101562 1.15625 2.28125 C 0.800781 2.46875 0.269531 2.554688 -0.4375 2.546875 Z M -0.4375 2.546875 "/></g></g></g><g fill="#ffffff" fill-opacity="1"><g transform="translate(48.390535, 19.233873)"><g><path d="M 2.734375 -6.453125 C 3.390625 -6.453125 3.921875 -6.257812 4.328125 -5.875 C 4.734375 -5.5 4.9375 -5 4.9375 -4.375 L 4.9375 -0.15625 C 4.9375 -0.113281 4.921875 -0.078125 4.890625 -0.046875 C 4.859375 -0.015625 4.820312 0 4.78125 0 L 3.640625 0 C 3.597656 0 3.5625 -0.015625 3.53125 -0.046875 C 3.507812 -0.078125 3.5 -0.113281 3.5 -0.15625 L 3.5 -0.390625 C 3.5 -0.410156 3.488281 -0.425781 3.46875 -0.4375 C 3.445312 -0.445312 3.429688 -0.4375 3.421875 -0.40625 C 3.128906 -0.0703125 2.707031 0.09375 2.15625 0.09375 C 1.675781 0.09375 1.253906 -0.0351562 0.890625 -0.296875 C 0.535156 -0.566406 0.359375 -1.0625 0.359375 -1.78125 C 0.359375 -2.519531 0.578125 -3.046875 1.015625 -3.359375 C 1.453125 -3.679688 2.039062 -3.84375 2.78125 -3.84375 L 3.4375 -3.84375 C 3.476562 -3.84375 3.5 -3.863281 3.5 -3.90625 L 3.5 -4.234375 C 3.5 -4.523438 3.421875 -4.757812 3.265625 -4.9375 C 3.117188 -5.125 2.9375 -5.21875 2.71875 -5.21875 C 2.539062 -5.21875 2.394531 -5.160156 2.28125 -5.046875 C 2.164062 -4.929688 2.09375 -4.78125 2.0625 -4.59375 C 2.050781 -4.488281 2 -4.4375 1.90625 -4.4375 L 0.703125 -4.4375 C 0.597656 -4.4375 0.550781 -4.488281 0.5625 -4.59375 C 0.601562 -5.15625 0.820312 -5.601562 1.21875 -5.9375 C 1.625 -6.28125 2.128906 -6.453125 2.734375 -6.453125 Z M 2.546875 -1.09375 C 2.796875 -1.09375 3.015625 -1.171875 3.203125 -1.328125 C 3.398438 -1.484375 3.5 -1.703125 3.5 -1.984375 L 3.5 -2.703125 C 3.5 -2.742188 3.476562 -2.765625 3.4375 -2.765625 L 2.78125 -2.765625 C 2.5 -2.765625 2.269531 -2.6875 2.09375 -2.53125 C 1.925781 -2.375 1.84375 -2.148438 1.84375 -1.859375 C 1.84375 -1.609375 1.90625 -1.414062 2.03125 -1.28125 C 2.164062 -1.15625 2.335938 -1.09375 2.546875 -1.09375 Z M 2.546875 -1.09375 "/></g></g></g><g fill="#ffffff" fill-opacity="1"><g transform="translate(53.784877, 19.233873)"><g><path d="M 6.109375 -6.453125 C 6.648438 -6.453125 7.054688 -6.265625 7.328125 -5.890625 C 7.609375 -5.515625 7.75 -4.988281 7.75 -4.3125 L 7.75 -0.15625 C 7.75 -0.113281 7.734375 -0.078125 7.703125 -0.046875 C 7.671875 -0.015625 7.632812 0 7.59375 0 L 6.46875 0 C 6.425781 0 6.390625 -0.015625 6.359375 -0.046875 C 6.328125 -0.078125 6.3125 -0.113281 6.3125 -0.15625 L 6.3125 -4.21875 C 6.3125 -4.53125 6.25 -4.773438 6.125 -4.953125 C 6 -5.128906 5.832031 -5.21875 5.625 -5.21875 C 5.394531 -5.21875 5.210938 -5.128906 5.078125 -4.953125 C 4.941406 -4.773438 4.875 -4.535156 4.875 -4.234375 L 4.875 -0.15625 C 4.875 -0.113281 4.859375 -0.078125 4.828125 -0.046875 C 4.796875 -0.015625 4.757812 0 4.71875 0 L 3.59375 0 C 3.550781 0 3.515625 -0.015625 3.484375 -0.046875 C 3.453125 -0.078125 3.4375 -0.113281 3.4375 -0.15625 L 3.4375 -4.21875 C 3.4375 -4.53125 3.375 -4.773438 3.25 -4.953125 C 3.125 -5.128906 2.957031 -5.21875 2.75 -5.21875 C 2.519531 -5.21875 2.335938 -5.128906 2.203125 -4.953125 C 2.066406 -4.773438 2 -4.535156 2 -4.234375 L 2 -0.15625 C 2 -0.113281 1.984375 -0.078125 1.953125 -0.046875 C 1.929688 -0.015625 1.898438 0 1.859375 0 L 0.71875 0 C 0.675781 0 0.640625 -0.015625 0.609375 -0.046875 C 0.585938 -0.078125 0.578125 -0.113281 0.578125 -0.15625 L 0.578125 -6.203125 C 0.578125 -6.242188 0.585938 -6.28125 0.609375 -6.3125 C 0.640625 -6.34375 0.675781 -6.359375 0.71875 -6.359375 L 1.859375 -6.359375 C 1.898438 -6.359375 1.929688 -6.34375 1.953125 -6.3125 C 1.984375 -6.28125 2 -6.242188 2 -6.203125 L 2 -6 C 2 -5.976562 2.003906 -5.960938 2.015625 -5.953125 C 2.035156 -5.941406 2.054688 -5.953125 2.078125 -5.984375 C 2.242188 -6.148438 2.429688 -6.269531 2.640625 -6.34375 C 2.847656 -6.414062 3.050781 -6.453125 3.25 -6.453125 C 3.863281 -6.453125 4.316406 -6.191406 4.609375 -5.671875 C 4.628906 -5.640625 4.664062 -5.648438 4.71875 -5.703125 C 4.882812 -5.972656 5.09375 -6.164062 5.34375 -6.28125 C 5.59375 -6.394531 5.847656 -6.453125 6.109375 -6.453125 Z M 6.109375 -6.453125 "/></g></g></g><g fill="#ffffff" fill-opacity="1"><g transform="translate(62.050394, 19.233873)"><g><path d="M 1.328125 -7.21875 C 1.066406 -7.21875 0.851562 -7.300781 0.6875 -7.46875 C 0.53125 -7.632812 0.453125 -7.847656 0.453125 -8.109375 C 0.453125 -8.367188 0.53125 -8.582031 0.6875 -8.75 C 0.851562 -8.914062 1.066406 -9 1.328125 -9 C 1.585938 -9 1.796875 -8.914062 1.953125 -8.75 C 2.117188 -8.582031 2.203125 -8.367188 2.203125 -8.109375 C 2.203125 -7.847656 2.117188 -7.632812 1.953125 -7.46875 C 1.785156 -7.300781 1.578125 -7.21875 1.328125 -7.21875 Z M 0.765625 0 C 0.722656 0 0.6875 -0.015625 0.65625 -0.046875 C 0.632812 -0.078125 0.625 -0.113281 0.625 -0.15625 L 0.625 -6.203125 C 0.625 -6.242188 0.632812 -6.28125 0.65625 -6.3125 C 0.6875 -6.34375 0.722656 -6.359375 0.765625 -6.359375 L 1.921875 -6.359375 C 1.960938 -6.359375 1.992188 -6.34375 2.015625 -6.3125 C 2.046875 -6.28125 2.0625 -6.242188 2.0625 -6.203125 L 2.0625 -0.15625 C 2.0625 -0.113281 2.046875 -0.078125 2.015625 -0.046875 C 1.992188 -0.015625 1.960938 0 1.921875 0 Z M 0.765625 0 "/></g></g></g><g fill="#ffffff" fill-opacity="1"><g transform="translate(64.722708, 19.233873)"><g><path d="M 3.296875 -6.453125 C 3.835938 -6.453125 4.242188 -6.269531 4.515625 -5.90625 C 4.796875 -5.550781 4.9375 -5.039062 4.9375 -4.375 L 4.9375 -0.15625 C 4.9375 -0.113281 4.921875 -0.078125 4.890625 -0.046875 C 4.859375 -0.015625 4.820312 0 4.78125 0 L 3.640625 0 C 3.597656 0 3.5625 -0.015625 3.53125 -0.046875 C 3.507812 -0.078125 3.5 -0.113281 3.5 -0.15625 L 3.5 -4.265625 C 3.5 -4.566406 3.4375 -4.800781 3.3125 -4.96875 C 3.1875 -5.132812 3.007812 -5.21875 2.78125 -5.21875 C 2.53125 -5.21875 2.335938 -5.128906 2.203125 -4.953125 C 2.078125 -4.773438 2.015625 -4.535156 2.015625 -4.234375 L 2.015625 -0.15625 C 2.015625 -0.113281 2 -0.078125 1.96875 -0.046875 C 1.9375 -0.015625 1.898438 0 1.859375 0 L 0.71875 0 C 0.675781 0 0.640625 -0.015625 0.609375 -0.046875 C 0.585938 -0.078125 0.578125 -0.113281 0.578125 -0.15625 L 0.578125 -6.203125 C 0.578125 -6.242188 0.585938 -6.28125 0.609375 -6.3125 C 0.640625 -6.34375 0.675781 -6.359375 0.71875 -6.359375 L 1.859375 -6.359375 C 1.898438 -6.359375 1.9375 -6.34375 1.96875 -6.3125 C 2 -6.28125 2.015625 -6.242188 2.015625 -6.203125 L 2.015625 -5.953125 C 2.015625 -5.929688 2.023438 -5.914062 2.046875 -5.90625 C 2.066406 -5.90625 2.085938 -5.921875 2.109375 -5.953125 C 2.390625 -6.285156 2.785156 -6.453125 3.296875 -6.453125 Z M 3.296875 -6.453125 "/></g></g></g><g fill="#ffffff" fill-opacity="1"><g transform="translate(70.168848, 19.233873)"><g/></g></g><g fill="#ffffff" fill-opacity="1"><g transform="translate(72.654715, 19.233873)"><g/></g></g><g fill="#ffffff" fill-opacity="1"><g transform="translate(75.140582, 19.233873)"><g/></g></g><g fill="#ffffff" fill-opacity="1"><g transform="translate(77.626449, 19.233873)"><g/></g></g><g fill="#ffffff" fill-opacity="1"><g transform="translate(80.112316, 19.233873)"><g/></g></g><g fill="#ffffff" fill-opacity="1"><g transform="translate(82.598183, 19.233873)"><g/></g></g><g fill="#ffffff" fill-opacity="1"><g transform="translate(85.084051, 19.233873)"><g/></g></g><g fill="#ffffff" fill-opacity="1"><g transform="translate(87.569918, 19.233873)"><g/></g></g><g fill="#ffffff" fill-opacity="1"><g transform="translate(90.055785, 19.233873)"><g/></g></g><g fill="#ffffff" fill-opacity="1"><g transform="translate(92.541652, 19.233873)"><g/></g></g><g fill="#ffffff" fill-opacity="1"><g transform="translate(95.016378, 19.233873)"><g><path d="M 5.40625 -2.390625 C 5.40625 -1.628906 5.179688 -1.039062 4.734375 -0.625 C 4.296875 -0.207031 3.722656 0 3.015625 0 L 0.828125 0 C 0.785156 0 0.75 -0.015625 0.71875 -0.046875 C 0.6875 -0.078125 0.671875 -0.113281 0.671875 -0.15625 L 0.671875 -8.5625 C 0.671875 -8.601562 0.6875 -8.632812 0.71875 -8.65625 C 0.75 -8.6875 0.785156 -8.703125 0.828125 -8.703125 L 2.78125 -8.703125 C 3.570312 -8.703125 4.191406 -8.503906 4.640625 -8.109375 C 5.085938 -7.710938 5.3125 -7.132812 5.3125 -6.375 C 5.3125 -5.519531 5.007812 -4.910156 4.40625 -4.546875 C 4.363281 -4.515625 4.351562 -4.488281 4.375 -4.46875 C 4.695312 -4.257812 4.945312 -3.976562 5.125 -3.625 C 5.3125 -3.28125 5.40625 -2.867188 5.40625 -2.390625 Z M 2.171875 -7.46875 C 2.128906 -7.46875 2.109375 -7.445312 2.109375 -7.40625 L 2.109375 -5.09375 C 2.109375 -5.050781 2.128906 -5.03125 2.171875 -5.03125 L 2.8125 -5.03125 C 3.15625 -5.03125 3.421875 -5.128906 3.609375 -5.328125 C 3.796875 -5.535156 3.890625 -5.832031 3.890625 -6.21875 C 3.890625 -6.613281 3.796875 -6.921875 3.609375 -7.140625 C 3.421875 -7.359375 3.15625 -7.46875 2.8125 -7.46875 Z M 2.890625 -1.25 C 3.222656 -1.25 3.484375 -1.363281 3.671875 -1.59375 C 3.867188 -1.832031 3.96875 -2.164062 3.96875 -2.59375 C 3.96875 -3.019531 3.867188 -3.351562 3.671875 -3.59375 C 3.484375 -3.84375 3.222656 -3.96875 2.890625 -3.96875 L 2.171875 -3.96875 C 2.128906 -3.96875 2.109375 -3.945312 2.109375 -3.90625 L 2.109375 -1.3125 C 2.109375 -1.269531 2.128906 -1.25 2.171875 -1.25 Z M 2.890625 -1.25 "/></g></g></g><g fill="#ffffff" fill-opacity="1"><g transform="translate(100.758739, 19.233873)"><g><path d="M 2.734375 -6.453125 C 3.390625 -6.453125 3.921875 -6.257812 4.328125 -5.875 C 4.734375 -5.5 4.9375 -5 4.9375 -4.375 L 4.9375 -0.15625 C 4.9375 -0.113281 4.921875 -0.078125 4.890625 -0.046875 C 4.859375 -0.015625 4.820312 0 4.78125 0 L 3.640625 0 C 3.597656 0 3.5625 -0.015625 3.53125 -0.046875 C 3.507812 -0.078125 3.5 -0.113281 3.5 -0.15625 L 3.5 -0.390625 C 3.5 -0.410156 3.488281 -0.425781 3.46875 -0.4375 C 3.445312 -0.445312 3.429688 -0.4375 3.421875 -0.40625 C 3.128906 -0.0703125 2.707031 0.09375 2.15625 0.09375 C 1.675781 0.09375 1.253906 -0.0351562 0.890625 -0.296875 C 0.535156 -0.566406 0.359375 -1.0625 0.359375 -1.78125 C 0.359375 -2.519531 0.578125 -3.046875 1.015625 -3.359375 C 1.453125 -3.679688 2.039062 -3.84375 2.78125 -3.84375 L 3.4375 -3.84375 C 3.476562 -3.84375 3.5 -3.863281 3.5 -3.90625 L 3.5 -4.234375 C 3.5 -4.523438 3.421875 -4.757812 3.265625 -4.9375 C 3.117188 -5.125 2.9375 -5.21875 2.71875 -5.21875 C 2.539062 -5.21875 2.394531 -5.160156 2.28125 -5.046875 C 2.164062 -4.929688 2.09375 -4.78125 2.0625 -4.59375 C 2.050781 -4.488281 2 -4.4375 1.90625 -4.4375 L 0.703125 -4.4375 C 0.597656 -4.4375 0.550781 -4.488281 0.5625 -4.59375 C 0.601562 -5.15625 0.820312 -5.601562 1.21875 -5.9375 C 1.625 -6.28125 2.128906 -6.453125 2.734375 -6.453125 Z M 2.546875 -1.09375 C 2.796875 -1.09375 3.015625 -1.171875 3.203125 -1.328125 C 3.398438 -1.484375 3.5 -1.703125 3.5 -1.984375 L 3.5 -2.703125 C 3.5 -2.742188 3.476562 -2.765625 3.4375 -2.765625 L 2.78125 -2.765625 C 2.5 -2.765625 2.269531 -2.6875 2.09375 -2.53125 C 1.925781 -2.375 1.84375 -2.148438 1.84375 -1.859375 C 1.84375 -1.609375 1.90625 -1.414062 2.03125 -1.28125 C 2.164062 -1.15625 2.335938 -1.09375 2.546875 -1.09375 Z M 2.546875 -1.09375 "/></g></g></g><g fill="#ffffff" fill-opacity="1"><g transform="translate(106.153081, 19.233873)"><g><path d="M 0.71875 0 C 0.675781 0 0.640625 -0.015625 0.609375 -0.046875 C 0.585938 -0.078125 0.578125 -0.113281 0.578125 -0.15625 L 0.578125 -8.5625 C 0.578125 -8.601562 0.585938 -8.632812 0.609375 -8.65625 C 0.640625 -8.6875 0.675781 -8.703125 0.71875 -8.703125 L 1.859375 -8.703125 C 1.898438 -8.703125 1.9375 -8.6875 1.96875 -8.65625 C 2 -8.632812 2.015625 -8.601562 2.015625 -8.5625 L 2.015625 -4.125 C 2.015625 -4.09375 2.019531 -4.078125 2.03125 -4.078125 C 2.050781 -4.078125 2.070312 -4.085938 2.09375 -4.109375 L 3.4375 -6.25 C 3.476562 -6.320312 3.539062 -6.359375 3.625 -6.359375 L 4.8125 -6.359375 C 4.875 -6.359375 4.910156 -6.335938 4.921875 -6.296875 C 4.941406 -6.265625 4.9375 -6.222656 4.90625 -6.171875 L 3.609375 -4.21875 C 3.585938 -4.1875 3.582031 -4.15625 3.59375 -4.125 L 5.09375 -0.171875 C 5.09375 -0.160156 5.09375 -0.140625 5.09375 -0.109375 C 5.09375 -0.0351562 5.050781 0 4.96875 0 L 3.78125 0 C 3.695312 0 3.644531 -0.0390625 3.625 -0.125 L 2.703125 -2.9375 C 2.691406 -2.957031 2.675781 -2.96875 2.65625 -2.96875 C 2.644531 -2.976562 2.632812 -2.972656 2.625 -2.953125 L 2.046875 -2.078125 C 2.023438 -2.046875 2.015625 -2.019531 2.015625 -2 L 2.015625 -0.15625 C 2.015625 -0.113281 2 -0.078125 1.96875 -0.046875 C 1.9375 -0.015625 1.898438 0 1.859375 0 Z M 0.71875 0 "/></g></g></g><g fill="#ffffff" fill-opacity="1"><g transform="translate(111.534998, 19.233873)"><g><path d="M 4.875 -2.796875 C 4.875 -2.753906 4.859375 -2.71875 4.828125 -2.6875 C 4.796875 -2.664062 4.757812 -2.65625 4.71875 -2.65625 L 1.984375 -2.65625 C 1.941406 -2.65625 1.921875 -2.632812 1.921875 -2.59375 L 1.921875 -2.03125 C 1.921875 -1.769531 1.988281 -1.554688 2.125 -1.390625 C 2.269531 -1.222656 2.453125 -1.140625 2.671875 -1.140625 C 2.859375 -1.140625 3.019531 -1.195312 3.15625 -1.3125 C 3.300781 -1.4375 3.394531 -1.597656 3.4375 -1.796875 C 3.457031 -1.878906 3.507812 -1.921875 3.59375 -1.921875 L 4.703125 -1.859375 C 4.742188 -1.859375 4.773438 -1.84375 4.796875 -1.8125 C 4.828125 -1.789062 4.84375 -1.753906 4.84375 -1.703125 C 4.78125 -1.117188 4.566406 -0.671875 4.203125 -0.359375 C 3.835938 -0.0546875 3.328125 0.09375 2.671875 0.09375 C 1.992188 0.09375 1.457031 -0.0820312 1.0625 -0.4375 C 0.664062 -0.800781 0.46875 -1.296875 0.46875 -1.921875 L 0.46875 -4.4375 C 0.46875 -5.039062 0.664062 -5.523438 1.0625 -5.890625 C 1.457031 -6.265625 1.992188 -6.453125 2.671875 -6.453125 C 3.347656 -6.453125 3.882812 -6.265625 4.28125 -5.890625 C 4.675781 -5.523438 4.875 -5.039062 4.875 -4.4375 Z M 2.671875 -5.21875 C 2.453125 -5.21875 2.269531 -5.132812 2.125 -4.96875 C 1.988281 -4.800781 1.921875 -4.585938 1.921875 -4.328125 L 1.921875 -3.765625 C 1.921875 -3.722656 1.941406 -3.703125 1.984375 -3.703125 L 3.390625 -3.703125 C 3.421875 -3.703125 3.4375 -3.722656 3.4375 -3.765625 L 3.4375 -4.328125 C 3.4375 -4.585938 3.363281 -4.800781 3.21875 -4.96875 C 3.082031 -5.132812 2.898438 -5.21875 2.671875 -5.21875 Z M 2.671875 -5.21875 "/></g></g></g><g fill="#ffffff" fill-opacity="1"><g transform="translate(116.829898, 19.233873)"><g><path d="M 3.171875 -6.4375 C 3.390625 -6.4375 3.5625 -6.394531 3.6875 -6.3125 C 3.757812 -6.269531 3.785156 -6.207031 3.765625 -6.125 L 3.5625 -4.96875 C 3.5625 -4.863281 3.503906 -4.832031 3.390625 -4.875 C 3.273438 -4.90625 3.171875 -4.921875 3.078125 -4.921875 C 2.972656 -4.921875 2.878906 -4.910156 2.796875 -4.890625 C 2.566406 -4.859375 2.378906 -4.726562 2.234375 -4.5 C 2.085938 -4.269531 2.015625 -4 2.015625 -3.6875 L 2.015625 -0.15625 C 2.015625 -0.113281 2 -0.078125 1.96875 -0.046875 C 1.9375 -0.0234375 1.898438 -0.015625 1.859375 -0.015625 L 0.71875 -0.015625 C 0.675781 -0.015625 0.640625 -0.0234375 0.609375 -0.046875 C 0.585938 -0.078125 0.578125 -0.113281 0.578125 -0.15625 L 0.578125 -6.203125 C 0.578125 -6.242188 0.585938 -6.28125 0.609375 -6.3125 C 0.640625 -6.34375 0.675781 -6.359375 0.71875 -6.359375 L 1.859375 -6.359375 C 1.898438 -6.359375 1.9375 -6.34375 1.96875 -6.3125 C 2 -6.28125 2.015625 -6.242188 2.015625 -6.203125 L 2.015625 -5.640625 C 2.015625 -5.597656 2.019531 -5.578125 2.03125 -5.578125 C 2.050781 -5.578125 2.066406 -5.59375 2.078125 -5.625 C 2.296875 -6.164062 2.660156 -6.4375 3.171875 -6.4375 Z M 3.171875 -6.4375 "/></g></g></g><g clip-path="url(#id2)"><path fill="#004aad" d="M 85.46875 17.113281 L 86.289062 17.609375 C 86.339844 17.640625 86.382812 17.683594 86.410156 17.734375 C 86.441406 17.785156 86.457031 17.84375 86.457031 17.902344 C 86.457031 17.964844 86.441406 18.019531 86.410156 18.074219 C 86.382812 18.125 86.339844 18.167969 86.289062 18.199219 L 80.289062 21.816406 C 80.054688 21.960938 79.820312 21.960938 79.585938 21.816406 L 73.585938 18.199219 C 73.535156 18.167969 73.496094 18.125 73.464844 18.074219 C 73.4375 18.019531 73.421875 17.964844 73.421875 17.902344 C 73.421875 17.84375 73.4375 17.785156 73.464844 17.734375 C 73.496094 17.683594 73.535156 17.640625 73.585938 17.609375 L 74.410156 17.113281 L 79.9375 20.449219 Z M 85.46875 13.878906 L 86.289062 14.375 C 86.339844 14.40625 86.382812 14.449219 86.410156 14.5 C 86.441406 14.554688 86.457031 14.609375 86.457031 14.671875 C 86.457031 14.730469 86.441406 14.789062 86.410156 14.839844 C 86.382812 14.894531 86.339844 14.933594 86.289062 14.964844 L 79.9375 18.796875 L 73.585938 14.964844 C 73.535156 14.933594 73.496094 14.894531 73.464844 14.839844 C 73.4375 14.789062 73.421875 14.730469 73.421875 14.671875 C 73.421875 14.609375 73.4375 14.554688 73.464844 14.5 C 73.496094 14.449219 73.535156 14.40625 73.585938 14.375 L 74.410156 13.878906 L 79.9375 17.214844 Z M 80.289062 7.558594 L 86.289062 11.179688 C 86.339844 11.210938 86.382812 11.25 86.410156 11.304688 C 86.441406 11.355469 86.457031 11.414062 86.457031 11.472656 C 86.457031 11.535156 86.441406 11.589844 86.410156 11.644531 C 86.382812 11.695312 86.339844 11.738281 86.289062 11.769531 L 79.9375 15.601562 L 73.585938 11.769531 C 73.535156 11.738281 73.496094 11.695312 73.464844 11.644531 C 73.4375 11.589844 73.421875 11.535156 73.421875 11.472656 C 73.421875 11.414062 73.4375 11.355469 73.464844 11.304688 C 73.496094 11.25 73.535156 11.210938 73.585938 11.179688 L 79.585938 7.558594 C 79.820312 7.417969 80.054688 7.417969 80.289062 7.558594 Z M 79.9375 8.949219 L 75.757812 11.472656 L 79.9375 13.996094 L 84.121094 11.472656 Z M 79.9375 8.949219 " fill-opacity="1" fill-rule="nonzero"/></g></svg>