<svg xmlns="http://www.w3.org/2000/svg" xmlns:xlink="http://www.w3.org/1999/xlink" width="300" zoomAndPan="magnify" viewBox="0 0 224.87999 30.000001" height="40" preserveAspectRatio="xMidYMid meet" version="1.0"><defs><g/><clipPath id="id1"><path d="M 3.570312 0 L 221.195312 0 L 221.195312 29.03125 L 3.570312 29.03125 Z M 3.570312 0 " clip-rule="nonzero"/></clipPath></defs><g clip-path="url(#id1)"><path fill="#ffffff" d="M 3.570312 0 L 221.3125 0 L 221.3125 36.289062 L 3.570312 36.289062 Z M 3.570312 0 " fill-opacity="1" fill-rule="nonzero"/><path fill="#000000" d="M 3.570312 0 L 221.3125 0 L 221.3125 29.03125 L 3.570312 29.03125 Z M 3.570312 0 " fill-opacity="1" fill-rule="nonzero"/><path fill="#ffffff" d="M 3.570312 0 L 221.3125 0 L 221.3125 29.03125 L 3.570312 29.03125 Z M 3.570312 0 " fill-opacity="1" fill-rule="nonzero"/><path fill="#000000" d="M 3.570312 0 L 221.3125 0 L 221.3125 29.03125 L 3.570312 29.03125 Z M 3.570312 0 " fill-opacity="1" fill-rule="nonzero"/></g><g fill="#ffffff" fill-opacity="1"><g transform="translate(33.55817, 19.766136)"><g><path d="M 9.296875 -3.78125 C 9.785156 -3.65625 10.140625 -3.453125 10.359375 -3.171875 C 10.585938 -2.890625 10.703125 -2.519531 10.703125 -2.0625 C 10.703125 -1.351562 10.460938 -0.832031 9.984375 -0.5 C 9.503906 -0.164062 8.757812 0 7.75 0 L 1.203125 0 L 1.203125 -7.453125 L 7.421875 -7.453125 C 8.460938 -7.453125 9.226562 -7.289062 9.71875 -6.96875 C 10.207031 -6.644531 10.453125 -6.128906 10.453125 -5.421875 C 10.453125 -5.015625 10.359375 -4.675781 10.171875 -4.40625 C 9.992188 -4.132812 9.703125 -3.925781 9.296875 -3.78125 Z M 8.125 -4.515625 L 8.125 -5.6875 L 3.4375 -5.6875 L 3.4375 -4.515625 Z M 3.4375 -1.765625 L 8.375 -1.765625 L 8.375 -2.984375 L 3.4375 -2.984375 Z M 3.4375 -1.765625 "/></g></g></g><g fill="#ffffff" fill-opacity="1"><g transform="translate(45.961798, 19.766136)"><g><path d="M 9.84375 0 L 1.203125 0 L 1.203125 -7.453125 L 9.6875 -7.453125 L 9.6875 -5.640625 L 3.453125 -5.640625 L 3.453125 -4.5 L 8 -4.5 L 8 -2.96875 L 3.453125 -2.96875 L 3.453125 -1.828125 L 9.84375 -1.828125 Z M 9.84375 0 "/></g></g></g><g fill="#ffffff" fill-opacity="1"><g transform="translate(57.564886, 19.766136)"><g><path d="M 3.375 0 L 1.203125 0 L 1.203125 -7.453125 L 4.921875 -7.453125 L 8.34375 -1.53125 L 8.390625 -1.53125 L 8.390625 -7.453125 L 10.546875 -7.453125 L 10.546875 0 L 6.828125 0 L 3.421875 -5.9375 L 3.375 -5.9375 Z M 3.375 0 "/></g></g></g><g fill="#ffffff" fill-opacity="1"><g transform="translate(70.418145, 19.766136)"><g><path d="M 3.921875 0.171875 C 3.398438 0.171875 2.820312 0.148438 2.1875 0.109375 C 1.550781 0.078125 0.957031 0.03125 0.40625 -0.03125 L 0.328125 -2.03125 C 1.210938 -1.90625 2.070312 -1.804688 2.90625 -1.734375 C 3.976562 -1.640625 4.820312 -1.582031 5.4375 -1.5625 L 5.4375 -5.640625 L 1.3125 -5.640625 L 1.3125 -7.453125 L 7.6875 -7.453125 L 7.6875 -3.03125 C 7.6875 -2.207031 7.5625 -1.5625 7.3125 -1.09375 C 7.0625 -0.632812 6.664062 -0.304688 6.125 -0.109375 C 5.582031 0.078125 4.847656 0.171875 3.921875 0.171875 Z M 3.921875 0.171875 "/></g></g></g><g fill="#ffffff" fill-opacity="1"><g transform="translate(80.244671, 19.766136)"><g><path d="M 3.53125 -7.453125 L 6.796875 -7.453125 L 10.375 -0.0625 L 10.375 0 L 7.9375 0 L 7.25 -1.46875 L 3.03125 -1.46875 L 2.359375 0 L -0.03125 0 L -0.03125 -0.0625 Z M 5.125 -5.9375 L 3.8125 -3.125 L 6.484375 -3.125 L 5.171875 -5.9375 Z M 5.125 -5.9375 "/></g></g></g><g fill="#ffffff" fill-opacity="1"><g transform="translate(91.694224, 19.766136)"><g><path d="M 3.453125 0 L 1.203125 0 L 1.203125 -7.453125 L 4.796875 -7.453125 L 6.734375 -3.3125 L 6.796875 -3.3125 L 8.78125 -7.453125 L 12.296875 -7.453125 L 12.296875 0 L 10.046875 0 L 10.046875 -5.9375 L 10 -5.9375 L 7.875 -1.53125 L 5.5625 -1.53125 L 3.515625 -5.9375 L 3.453125 -5.9375 Z M 3.453125 0 "/></g></g></g><g fill="#ffffff" fill-opacity="1"><g transform="translate(106.291139, 19.766136)"><g><path d="M 8.046875 0 L 0.71875 0 L 0.71875 -1.796875 L 3.3125 -1.796875 L 3.3125 -5.671875 L 0.71875 -5.671875 L 0.71875 -7.453125 L 8.046875 -7.453125 L 8.046875 -5.671875 L 5.453125 -5.671875 L 5.453125 -1.796875 L 8.046875 -1.796875 Z M 8.046875 0 "/></g></g></g><g fill="#ffffff" fill-opacity="1"><g transform="translate(116.13959, 19.766136)"><g><path d="M 3.375 0 L 1.203125 0 L 1.203125 -7.453125 L 4.921875 -7.453125 L 8.34375 -1.53125 L 8.390625 -1.53125 L 8.390625 -7.453125 L 10.546875 -7.453125 L 10.546875 0 L 6.828125 0 L 3.421875 -5.9375 L 3.375 -5.9375 Z M 3.375 0 "/></g></g></g><g fill="#ffffff" fill-opacity="1"><g transform="translate(128.992847, 19.766136)"><g/></g></g><g fill="#ffffff" fill-opacity="1"><g transform="translate(133.489688, 19.766136)"><g><path d="M 9.296875 -3.78125 C 9.785156 -3.65625 10.140625 -3.453125 10.359375 -3.171875 C 10.585938 -2.890625 10.703125 -2.519531 10.703125 -2.0625 C 10.703125 -1.351562 10.460938 -0.832031 9.984375 -0.5 C 9.503906 -0.164062 8.757812 0 7.75 0 L 1.203125 0 L 1.203125 -7.453125 L 7.421875 -7.453125 C 8.460938 -7.453125 9.226562 -7.289062 9.71875 -6.96875 C 10.207031 -6.644531 10.453125 -6.128906 10.453125 -5.421875 C 10.453125 -5.015625 10.359375 -4.675781 10.171875 -4.40625 C 9.992188 -4.132812 9.703125 -3.925781 9.296875 -3.78125 Z M 8.125 -4.515625 L 8.125 -5.6875 L 3.4375 -5.6875 L 3.4375 -4.515625 Z M 3.4375 -1.765625 L 8.375 -1.765625 L 8.375 -2.984375 L 3.4375 -2.984375 Z M 3.4375 -1.765625 "/></g></g></g><g fill="#ffffff" fill-opacity="1"><g transform="translate(145.893319, 19.766136)"><g><path d="M 3.53125 -7.453125 L 6.796875 -7.453125 L 10.375 -0.0625 L 10.375 0 L 7.9375 0 L 7.25 -1.46875 L 3.03125 -1.46875 L 2.359375 0 L -0.03125 0 L -0.03125 -0.0625 Z M 5.125 -5.9375 L 3.8125 -3.125 L 6.484375 -3.125 L 5.171875 -5.9375 Z M 5.125 -5.9375 "/></g></g></g><g fill="#ffffff" fill-opacity="1"><g transform="translate(157.342878, 19.766136)"><g><path d="M 10 -7.40625 L 6.078125 -4.21875 L 10.171875 -0.0625 L 10.171875 0 L 7.203125 0 L 4.4375 -2.890625 L 3.453125 -2.109375 L 3.453125 0 L 1.203125 0 L 1.203125 -7.453125 L 3.453125 -7.453125 L 3.453125 -4.59375 L 7 -7.453125 L 10 -7.453125 Z M 10 -7.40625 "/></g></g></g><g fill="#ffffff" fill-opacity="1"><g transform="translate(168.693737, 19.766136)"><g><path d="M 9.84375 0 L 1.203125 0 L 1.203125 -7.453125 L 9.6875 -7.453125 L 9.6875 -5.640625 L 3.453125 -5.640625 L 3.453125 -4.5 L 8 -4.5 L 8 -2.96875 L 3.453125 -2.96875 L 3.453125 -1.828125 L 9.84375 -1.828125 Z M 9.84375 0 "/></g></g></g><g fill="#ffffff" fill-opacity="1"><g transform="translate(180.296828, 19.766136)"><g><path d="M 10.453125 -0.0625 L 10.453125 0 L 7.5625 0 L 4.828125 -2.59375 L 3.453125 -2.59375 L 3.453125 0 L 1.203125 0 L 1.203125 -7.453125 L 7.265625 -7.453125 C 8.328125 -7.453125 9.101562 -7.25 9.59375 -6.84375 C 10.09375 -6.4375 10.34375 -5.832031 10.34375 -5.03125 C 10.34375 -4.269531 10.128906 -3.6875 9.703125 -3.28125 C 9.273438 -2.875 8.609375 -2.644531 7.703125 -2.59375 Z M 7.96875 -5.71875 L 3.453125 -5.71875 L 3.453125 -4.15625 L 7.96875 -4.15625 Z M 7.96875 -5.71875 "/></g></g></g></svg>