<svg xmlns="http://www.w3.org/2000/svg" xmlns:xlink="http://www.w3.org/1999/xlink" width="300" zoomAndPan="magnify" viewBox="0 0 224.87999 33.749998" height="45" preserveAspectRatio="xMidYMid meet" version="1.0"><defs><g/></defs><g fill="#ffffff" fill-opacity="1"><g transform="translate(3.919637, 23.079041)"><g><path d="M 1.109375 0 L 9.394531 0 C 12.347656 0 15.5 -1.332031 16.121094 -4.796875 C 16.167969 -4.972656 16.167969 -5.175781 16.167969 -5.375 C 16.167969 -6.597656 15.523438 -7.972656 14.125 -8.351562 C 15.324219 -8.925781 16.167969 -10.125 16.324219 -11.082031 C 16.390625 -11.4375 16.410156 -11.769531 16.410156 -12.082031 C 16.410156 -14.457031 14.570312 -15.546875 11.882812 -15.546875 L 3.84375 -15.546875 Z M 5.75 -9.347656 L 6.394531 -12.992188 L 11.460938 -12.992188 C 12.480469 -12.992188 13.4375 -12.613281 13.4375 -11.527344 C 13.4375 -11.394531 13.414062 -11.257812 13.390625 -11.125 C 13.148438 -9.792969 12.148438 -9.371094 10.972656 -9.347656 Z M 4.550781 -2.554688 L 5.308594 -6.863281 L 10.59375 -6.863281 C 11.882812 -6.863281 13.125 -6.460938 13.125 -5.152344 C 13.125 -5.019531 13.101562 -4.886719 13.082031 -4.730469 C 12.792969 -3.085938 11.347656 -2.574219 9.839844 -2.554688 Z M 4.550781 -2.554688 "/></g></g></g><g fill="#ffffff" fill-opacity="1"><g transform="translate(20.108214, 23.079041)"><g><path d="M 1.089844 0 L 13.523438 0 L 13.96875 -2.644531 L 4.507812 -2.644531 L 5.195312 -6.484375 L 14.28125 -6.484375 L 14.722656 -9.039062 L 5.640625 -9.039062 L 6.328125 -12.902344 L 15.789062 -12.902344 L 16.257812 -15.546875 L 3.820312 -15.546875 Z M 1.089844 0 "/></g></g></g><g fill="#ffffff" fill-opacity="1"><g transform="translate(34.653508, 23.079041)"><g><path d="M 1.109375 0 L 4.128906 0 L 5.75 -9.214844 L 5.886719 -11.679688 L 5.996094 -11.703125 L 6.972656 -9.570312 L 13.390625 0 L 16.410156 0 L 19.144531 -15.546875 L 16.167969 -15.546875 L 14.613281 -6.730469 L 14.367188 -3.796875 L 14.28125 -3.773438 L 6.597656 -15.546875 L 3.84375 -15.546875 Z M 1.109375 0 "/></g></g></g><g fill="#ffffff" fill-opacity="1"><g transform="translate(52.729643, 23.079041)"><g><path d="M 8.105469 0.246094 C 12.746094 0.246094 16.210938 -3.042969 16.988281 -7.527344 L 18.410156 -15.546875 L 8.640625 -15.546875 L 8.195312 -13.101562 L 14.992188 -13.101562 L 13.925781 -7.527344 C 13.324219 -4.109375 10.992188 -2.375 8.550781 -2.375 C 6.507812 -2.375 4.574219 -3.351562 4.574219 -6.460938 C 4.574219 -6.90625 4.621094 -7.417969 4.707031 -7.949219 L 1.867188 -7.949219 C 1.753906 -7.261719 1.6875 -6.617188 1.6875 -6.019531 C 1.6875 -2.066406 4.152344 0.246094 8.105469 0.246094 Z M 8.105469 0.246094 "/></g></g></g><g fill="#ffffff" fill-opacity="1"><g transform="translate(70.07297, 23.079041)"><g><path d="M -0.511719 0 L 2.84375 0 L 5.398438 -3.730469 L 13.414062 -3.730469 L 14.679688 0 L 17.988281 0 L 12.859375 -15.632812 L 10.171875 -15.632812 Z M 7.152344 -6.308594 L 9.304688 -9.617188 L 10.972656 -12.503906 L 11.613281 -9.660156 L 12.59375 -6.308594 Z M 7.152344 -6.308594 "/></g></g></g><g fill="#ffffff" fill-opacity="1"><g transform="translate(88.060281, 23.079041)"><g><path d="M 1.109375 0 L 4.199219 0 L 5.683594 -8.527344 L 5.996094 -10.859375 L 9.992188 -4.109375 L 11.703125 -4.109375 L 18.121094 -10.925781 L 17.609375 -8.640625 L 16.101562 0 L 19.1875 0 L 21.917969 -15.546875 L 18.988281 -15.546875 L 11.394531 -7.527344 L 6.839844 -15.546875 L 3.84375 -15.546875 Z M 1.109375 0 "/></g></g></g><g fill="#ffffff" fill-opacity="1"><g transform="translate(108.91224, 23.079041)"><g><path d="M 1.109375 0 L 4.199219 0 L 6.929688 -15.546875 L 3.84375 -15.546875 Z M 1.109375 0 "/></g></g></g><g fill="#ffffff" fill-opacity="1"><g transform="translate(114.774777, 23.079041)"><g><path d="M 1.109375 0 L 4.128906 0 L 5.75 -9.214844 L 5.886719 -11.679688 L 5.996094 -11.703125 L 6.972656 -9.570312 L 13.390625 0 L 16.410156 0 L 19.144531 -15.546875 L 16.167969 -15.546875 L 14.613281 -6.730469 L 14.367188 -3.796875 L 14.28125 -3.773438 L 6.597656 -15.546875 L 3.84375 -15.546875 Z M 1.109375 0 "/></g></g></g><g fill="#ffffff" fill-opacity="1"><g transform="translate(132.850911, 23.079041)"><g/></g></g><g fill="#ffffff" fill-opacity="1"><g transform="translate(138.913304, 23.079041)"><g><path d="M 1.109375 0 L 9.394531 0 C 12.347656 0 15.5 -1.332031 16.121094 -4.796875 C 16.167969 -4.972656 16.167969 -5.175781 16.167969 -5.375 C 16.167969 -6.597656 15.523438 -7.972656 14.125 -8.351562 C 15.324219 -8.925781 16.167969 -10.125 16.324219 -11.082031 C 16.390625 -11.4375 16.410156 -11.769531 16.410156 -12.082031 C 16.410156 -14.457031 14.570312 -15.546875 11.882812 -15.546875 L 3.84375 -15.546875 Z M 5.75 -9.347656 L 6.394531 -12.992188 L 11.460938 -12.992188 C 12.480469 -12.992188 13.4375 -12.613281 13.4375 -11.527344 C 13.4375 -11.394531 13.414062 -11.257812 13.390625 -11.125 C 13.148438 -9.792969 12.148438 -9.371094 10.972656 -9.347656 Z M 4.550781 -2.554688 L 5.308594 -6.863281 L 10.59375 -6.863281 C 11.882812 -6.863281 13.125 -6.460938 13.125 -5.152344 C 13.125 -5.019531 13.101562 -4.886719 13.082031 -4.730469 C 12.792969 -3.085938 11.347656 -2.574219 9.839844 -2.554688 Z M 4.550781 -2.554688 "/></g></g></g><g fill="#ffffff" fill-opacity="1"><g transform="translate(155.101881, 23.079041)"><g><path d="M -0.511719 0 L 2.84375 0 L 5.398438 -3.730469 L 13.414062 -3.730469 L 14.679688 0 L 17.988281 0 L 12.859375 -15.632812 L 10.171875 -15.632812 Z M 7.152344 -6.308594 L 9.304688 -9.617188 L 10.972656 -12.503906 L 11.613281 -9.660156 L 12.59375 -6.308594 Z M 7.152344 -6.308594 "/></g></g></g><g fill="#ffffff" fill-opacity="1"><g transform="translate(173.089192, 23.079041)"><g><path d="M 1.109375 0 L 4.175781 0 L 4.929688 -4.308594 L 8.105469 -6.75 L 13.570312 0 L 17.035156 0 L 17.054688 -0.175781 L 10.371094 -8.460938 L 19.277344 -15.390625 L 19.296875 -15.546875 L 15.433594 -15.546875 L 9.0625 -10.726562 L 5.484375 -7.550781 L 6.90625 -15.546875 L 3.84375 -15.546875 Z M 1.109375 0 "/></g></g></g><g fill="#ffffff" fill-opacity="1"><g transform="translate(190.365893, 23.079041)"><g><path d="M 1.089844 0 L 13.523438 0 L 13.96875 -2.644531 L 4.507812 -2.644531 L 5.195312 -6.484375 L 14.28125 -6.484375 L 14.722656 -9.039062 L 5.640625 -9.039062 L 6.328125 -12.902344 L 15.789062 -12.902344 L 16.257812 -15.546875 L 3.820312 -15.546875 Z M 1.089844 0 "/></g></g></g><g fill="#ffffff" fill-opacity="1"><g transform="translate(204.911198, 23.079041)"><g><path d="M 1.109375 0 L 4.199219 0 L 5.175781 -5.664062 L 8.105469 -5.664062 L 12.082031 0 L 15.457031 0 L 15.480469 -0.132812 L 11.546875 -5.75 C 12.792969 -5.820312 13.746094 -6.128906 14.636719 -6.730469 C 15.945312 -7.660156 16.878906 -9.128906 17.121094 -10.503906 C 17.167969 -10.792969 17.1875 -11.082031 17.1875 -11.347656 C 17.1875 -12.457031 16.8125 -13.546875 16.078125 -14.257812 C 14.992188 -15.257812 13.234375 -15.546875 11.882812 -15.546875 L 3.84375 -15.546875 Z M 5.617188 -8.128906 L 6.460938 -12.925781 L 11.414062 -12.925781 C 12.925781 -12.925781 14.078125 -12.4375 14.078125 -11.058594 C 14.078125 -10.902344 14.058594 -10.726562 14.035156 -10.546875 C 13.746094 -8.90625 12.59375 -8.128906 10.792969 -8.128906 Z M 5.617188 -8.128906 "/></g></g></g></svg>