<svg xmlns="http://www.w3.org/2000/svg" xmlns:xlink="http://www.w3.org/1999/xlink" width="500" zoomAndPan="magnify" viewBox="0 0 375 374.999991" height="500" preserveAspectRatio="xMidYMid meet" version="1.0"><defs><g/></defs><rect x="-37.5" width="450" fill="#152039" y="-37.499999" height="449.999989" fill-opacity="1"/><g fill="#ffffff" fill-opacity="1"><g transform="translate(50.156251, 236.624984)"><g><path d="M 52.625 -23.96875 C 51.800781 -16.3125 49 -10.398438 44.21875 -6.234375 C 39.445312 -2.078125 33.5625 0 26.5625 0 L 5.5625 0 C 4.65625 0 4.203125 -0.492188 4.203125 -1.484375 L 14.453125 -84.984375 C 14.535156 -85.398438 14.738281 -85.75 15.0625 -86.03125 C 15.394531 -86.320312 15.769531 -86.46875 16.1875 -86.46875 L 35.078125 -86.46875 C 41.921875 -86.46875 47.253906 -84.863281 51.078125 -81.65625 C 54.910156 -78.445312 56.828125 -73.671875 56.828125 -67.328125 C 56.828125 -66.421875 56.742188 -65.0625 56.578125 -63.25 C 55.503906 -54.769531 51.835938 -48.71875 45.578125 -45.09375 C 45.085938 -44.84375 44.96875 -44.59375 45.21875 -44.34375 C 50.320312 -40.5625 52.875 -35.046875 52.875 -27.796875 C 52.875 -27.054688 52.789062 -25.78125 52.625 -23.96875 Z M 27.671875 -74.125 C 27.253906 -74.125 27.046875 -73.914062 27.046875 -73.5 L 24.21875 -50.53125 C 24.050781 -50.113281 24.210938 -49.90625 24.703125 -49.90625 L 30.765625 -49.90625 C 34.054688 -49.90625 36.75 -50.929688 38.84375 -52.984375 C 40.945312 -55.046875 42.242188 -57.972656 42.734375 -61.765625 C 42.816406 -62.335938 42.859375 -63.160156 42.859375 -64.234375 C 42.859375 -67.367188 42.078125 -69.800781 40.515625 -71.53125 C 38.953125 -73.257812 36.6875 -74.125 33.71875 -74.125 Z M 27.046875 -12.484375 C 30.265625 -12.484375 32.921875 -13.632812 35.015625 -15.9375 C 37.117188 -18.238281 38.457031 -21.488281 39.03125 -25.6875 C 39.113281 -26.351562 39.15625 -27.300781 39.15625 -28.53125 C 39.15625 -31.90625 38.394531 -34.5625 36.875 -36.5 C 35.351562 -38.4375 33.191406 -39.40625 30.390625 -39.40625 L 23.46875 -39.40625 C 22.976562 -39.40625 22.734375 -39.195312 22.734375 -38.78125 L 19.640625 -13.09375 C 19.472656 -12.6875 19.640625 -12.484375 20.140625 -12.484375 Z M 27.046875 -12.484375 "/></g></g></g><g fill="#ffffff" fill-opacity="1"><g transform="translate(105.491212, 236.624984)"><g><path d="M 38.046875 0 C 37.140625 0 36.6875 -0.453125 36.6875 -1.359375 L 36.078125 -14.328125 C 36.078125 -14.742188 35.828125 -14.953125 35.328125 -14.953125 L 17.90625 -14.953125 C 17.5 -14.953125 17.210938 -14.742188 17.046875 -14.328125 L 13.21875 -1.359375 C 12.96875 -0.453125 12.390625 0 11.484375 0 L 0.625 0 C -0.445312 0 -0.820312 -0.535156 -0.5 -1.609375 L 27.421875 -85.109375 C 27.671875 -86.015625 28.25 -86.46875 29.15625 -86.46875 L 41.875 -86.46875 C 42.78125 -86.46875 43.234375 -86.015625 43.234375 -85.109375 L 50.765625 -1.609375 L 50.765625 -1.359375 C 50.765625 -0.453125 50.269531 0 49.28125 0 Z M 20.75 -26.8125 C 20.664062 -26.394531 20.875 -26.1875 21.375 -26.1875 L 34.59375 -26.1875 C 35.082031 -26.1875 35.328125 -26.394531 35.328125 -26.8125 L 33.109375 -65.84375 C 33.109375 -66.09375 33.023438 -66.21875 32.859375 -66.21875 C 32.691406 -66.21875 32.523438 -66.09375 32.359375 -65.84375 Z M 20.75 -26.8125 "/></g></g></g><g fill="#ffffff" fill-opacity="1"><g transform="translate(160.208593, 236.624984)"><g><path d="M 5.5625 0 C 4.65625 0 4.203125 -0.492188 4.203125 -1.484375 L 14.453125 -84.984375 C 14.535156 -85.398438 14.738281 -85.75 15.0625 -86.03125 C 15.394531 -86.320312 15.769531 -86.46875 16.1875 -86.46875 L 27.171875 -86.46875 C 27.585938 -86.46875 27.914062 -86.320312 28.15625 -86.03125 C 28.40625 -85.75 28.488281 -85.398438 28.40625 -84.984375 L 24.21875 -50.890625 C 24.132812 -50.566406 24.191406 -50.382812 24.390625 -50.34375 C 24.597656 -50.300781 24.785156 -50.398438 24.953125 -50.640625 L 47.1875 -85.359375 C 47.601562 -86.097656 48.222656 -86.46875 49.046875 -86.46875 L 60.90625 -86.46875 C 61.644531 -86.46875 62.015625 -86.222656 62.015625 -85.734375 C 62.015625 -85.484375 61.890625 -85.15625 61.640625 -84.75 L 39.40625 -50.03125 C 39.320312 -49.695312 39.28125 -49.445312 39.28125 -49.28125 L 52.875 -1.734375 L 52.875 -1.359375 C 52.875 -0.453125 52.421875 0 51.515625 0 L 39.65625 0 C 38.832031 0 38.335938 -0.367188 38.171875 -1.109375 L 28.40625 -36.8125 C 28.320312 -37.0625 28.195312 -37.164062 28.03125 -37.125 C 27.875 -37.082031 27.710938 -36.976562 27.546875 -36.8125 L 21.734375 -28.53125 C 21.660156 -28.445312 21.582031 -28.34375 21.5 -28.21875 C 21.414062 -28.101562 21.375 -27.960938 21.375 -27.796875 L 18.15625 -1.484375 C 18.070312 -1.066406 17.882812 -0.710938 17.59375 -0.421875 C 17.3125 -0.140625 16.960938 0 16.546875 0 Z M 5.5625 0 "/></g></g></g><g fill="#ffffff" fill-opacity="1"><g transform="translate(217.396283, 236.624984)"><g><path d="M 55.21875 -75.59375 C 55.132812 -75.1875 54.945312 -74.835938 54.65625 -74.546875 C 54.375 -74.265625 54.023438 -74.125 53.609375 -74.125 L 27.671875 -74.125 C 27.253906 -74.125 27.046875 -73.914062 27.046875 -73.5 L 24.09375 -50.15625 C 24.09375 -49.738281 24.296875 -49.53125 24.703125 -49.53125 L 40.03125 -49.53125 C 40.4375 -49.53125 40.765625 -49.382812 41.015625 -49.09375 C 41.265625 -48.8125 41.347656 -48.460938 41.265625 -48.046875 L 40.03125 -38.546875 C 40.03125 -38.128906 39.863281 -37.773438 39.53125 -37.484375 C 39.195312 -37.203125 38.828125 -37.0625 38.421875 -37.0625 L 23.09375 -37.0625 C 22.6875 -37.0625 22.484375 -36.851562 22.484375 -36.4375 L 19.515625 -12.96875 C 19.515625 -12.5625 19.722656 -12.359375 20.140625 -12.359375 L 45.953125 -12.359375 C 46.367188 -12.359375 46.695312 -12.210938 46.9375 -11.921875 C 47.1875 -11.628906 47.269531 -11.28125 47.1875 -10.875 L 46.078125 -1.484375 C 45.992188 -1.066406 45.804688 -0.710938 45.515625 -0.421875 C 45.234375 -0.140625 44.882812 0 44.46875 0 L 5.5625 0 C 4.65625 0 4.203125 -0.492188 4.203125 -1.484375 L 14.453125 -84.984375 C 14.535156 -85.398438 14.738281 -85.75 15.0625 -86.03125 C 15.394531 -86.320312 15.769531 -86.46875 16.1875 -86.46875 L 55.09375 -86.46875 C 55.507812 -86.46875 55.835938 -86.320312 56.078125 -86.03125 C 56.328125 -85.75 56.410156 -85.398438 56.328125 -84.984375 Z M 55.21875 -75.59375 "/></g></g></g><g fill="#ffffff" fill-opacity="1"><g transform="translate(269.519838, 236.624984)"><g><path d="M 37.3125 0 C 36.488281 0 35.992188 -0.410156 35.828125 -1.234375 L 30.015625 -36.6875 C 30.015625 -36.769531 29.972656 -36.875 29.890625 -37 C 29.804688 -37.125 29.6875 -37.1875 29.53125 -37.1875 L 23.09375 -37.1875 C 22.6875 -37.1875 22.484375 -36.976562 22.484375 -36.5625 L 18.15625 -1.484375 C 18.070312 -1.066406 17.882812 -0.710938 17.59375 -0.421875 C 17.3125 -0.140625 16.960938 0 16.546875 0 L 5.5625 0 C 4.65625 0 4.203125 -0.492188 4.203125 -1.484375 L 14.453125 -84.984375 C 14.535156 -85.398438 14.738281 -85.75 15.0625 -86.03125 C 15.394531 -86.320312 15.769531 -86.46875 16.1875 -86.46875 L 38.671875 -86.46875 C 44.429688 -86.46875 48.976562 -84.550781 52.3125 -80.71875 C 55.644531 -76.894531 57.3125 -71.8125 57.3125 -65.46875 C 57.3125 -64.644531 57.234375 -63.242188 57.078125 -61.265625 C 56.410156 -56.160156 54.882812 -51.753906 52.5 -48.046875 C 50.113281 -44.347656 47.109375 -41.550781 43.484375 -39.65625 C 43.148438 -39.570312 42.984375 -39.320312 42.984375 -38.90625 L 50.15625 -1.734375 L 50.15625 -1.234375 C 50.15625 -0.410156 49.703125 0 48.796875 0 Z M 27.671875 -74.125 C 27.253906 -74.125 27.046875 -73.914062 27.046875 -73.5 L 23.96875 -48.921875 C 23.96875 -48.503906 24.128906 -48.296875 24.453125 -48.296875 L 31.875 -48.296875 C 35.082031 -48.296875 37.773438 -49.71875 39.953125 -52.5625 C 42.140625 -55.40625 43.234375 -59.171875 43.234375 -63.859375 C 43.234375 -67.078125 42.488281 -69.59375 41 -71.40625 C 39.519531 -73.21875 37.503906 -74.125 34.953125 -74.125 Z M 27.671875 -74.125 "/></g></g></g></svg>