<svg xmlns="http://www.w3.org/2000/svg" xmlns:xlink="http://www.w3.org/1999/xlink" width="500" zoomAndPan="magnify" viewBox="0 0 375 374.999991" height="500" preserveAspectRatio="xMidYMid meet" version="1.0"><defs><g/><clipPath id="id1"><path d="M 167.445312 164.359375 L 237 164.359375 L 237 234 L 167.445312 234 Z M 167.445312 164.359375 " clip-rule="nonzero"/></clipPath></defs><g clip-path="url(#id1)"><path fill="#ff1616" d="M 202.160156 164.277344 C 201.019531 164.277344 199.882812 164.332031 198.75 164.445312 C 197.613281 164.554688 196.488281 164.722656 195.371094 164.945312 C 194.253906 165.164062 193.148438 165.441406 192.058594 165.773438 C 190.96875 166.101562 189.898438 166.484375 188.84375 166.921875 C 187.792969 167.355469 186.761719 167.839844 185.757812 168.378906 C 184.75 168.914062 183.773438 169.5 182.828125 170.132812 C 181.878906 170.761719 180.964844 171.441406 180.082031 172.164062 C 179.203125 172.886719 178.359375 173.648438 177.550781 174.453125 C 176.746094 175.257812 175.980469 176.101562 175.257812 176.980469 C 174.535156 177.863281 173.855469 178.777344 173.222656 179.722656 C 172.589844 180.667969 172.003906 181.644531 171.464844 182.648438 C 170.925781 183.652344 170.4375 184.683594 170.003906 185.734375 C 169.566406 186.785156 169.179688 187.859375 168.847656 188.949219 C 168.519531 190.039062 168.242188 191.140625 168.015625 192.257812 C 167.792969 193.375 167.625 194.5 167.511719 195.636719 C 167.398438 196.769531 167.34375 197.90625 167.34375 199.042969 C 167.339844 200.183594 167.394531 201.320312 167.507812 202.453125 C 167.617188 203.589844 167.78125 204.714844 168.003906 205.832031 C 168.222656 206.949219 168.5 208.054688 168.828125 209.144531 C 169.160156 210.234375 169.542969 211.308594 169.976562 212.359375 C 170.410156 213.414062 170.894531 214.441406 171.433594 215.449219 C 171.96875 216.453125 172.550781 217.429688 173.183594 218.378906 C 173.816406 219.328125 174.492188 220.242188 175.214844 221.125 C 175.9375 222.003906 176.699219 222.847656 177.503906 223.65625 C 178.308594 224.460938 179.152344 225.226562 180.03125 225.953125 C 180.910156 226.675781 181.824219 227.355469 182.769531 227.988281 C 183.714844 228.625 184.691406 229.210938 185.695312 229.75 C 186.699219 230.285156 187.726562 230.773438 188.78125 231.210938 C 189.832031 231.648438 190.902344 232.035156 191.992188 232.367188 C 193.082031 232.699219 194.1875 232.976562 195.304688 233.199219 C 196.421875 233.425781 197.546875 233.59375 198.679688 233.707031 C 199.8125 233.820312 200.949219 233.878906 202.089844 233.878906 C 203.230469 233.882812 204.367188 233.828125 205.5 233.71875 C 206.632812 233.609375 207.757812 233.441406 208.878906 233.222656 C 209.996094 233 211.097656 232.726562 212.191406 232.398438 C 213.28125 232.070312 214.351562 231.6875 215.40625 231.253906 C 216.460938 230.820312 217.488281 230.332031 218.496094 229.796875 C 219.5 229.261719 220.476562 228.679688 221.425781 228.046875 C 222.375 227.417969 223.289062 226.742188 224.171875 226.019531 C 225.054688 225.296875 225.898438 224.535156 226.707031 223.730469 C 227.511719 222.925781 228.277344 222.085938 229.003906 221.207031 C 229.726562 220.324219 230.40625 219.414062 231.042969 218.46875 C 231.675781 217.519531 232.261719 216.546875 232.800781 215.542969 C 233.339844 214.539062 233.828125 213.511719 234.269531 212.457031 C 234.707031 211.40625 235.089844 210.335938 235.425781 209.246094 C 235.757812 208.15625 236.035156 207.054688 236.261719 205.9375 C 236.484375 204.820312 236.652344 203.695312 236.769531 202.558594 C 236.882812 201.425781 236.941406 200.289062 236.941406 199.152344 C 236.941406 198.011719 236.886719 196.875 236.773438 195.738281 C 236.660156 194.605469 236.492188 193.476562 236.273438 192.359375 C 236.050781 191.242188 235.773438 190.136719 235.441406 189.046875 C 235.109375 187.953125 234.726562 186.882812 234.292969 185.828125 C 233.855469 184.777344 233.367188 183.746094 232.832031 182.742188 C 232.296875 181.734375 231.710938 180.757812 231.078125 179.808594 C 230.445312 178.859375 229.769531 177.945312 229.046875 177.0625 C 228.324219 176.179688 227.558594 175.335938 226.753906 174.527344 C 225.949219 173.722656 225.105469 172.957031 224.226562 172.230469 C 223.347656 171.507812 222.433594 170.828125 221.484375 170.191406 C 220.539062 169.558594 219.5625 168.96875 218.558594 168.429688 C 217.554688 167.890625 216.527344 167.402344 215.472656 166.964844 C 214.421875 166.523438 213.351562 166.140625 212.257812 165.804688 C 211.167969 165.472656 210.066406 165.191406 208.949219 164.96875 C 207.832031 164.742188 206.703125 164.570312 205.570312 164.457031 C 204.4375 164.339844 203.296875 164.28125 202.160156 164.277344 Z M 201.652344 213.6875 C 201.375 213.953125 201.074219 214.191406 200.75 214.394531 C 200.425781 214.601562 200.082031 214.773438 199.722656 214.910156 C 199.363281 215.046875 198.996094 215.144531 198.613281 215.207031 C 198.234375 215.269531 197.855469 215.292969 197.46875 215.277344 C 197.085938 215.261719 196.707031 215.207031 196.332031 215.117188 C 195.960938 215.023438 195.601562 214.898438 195.253906 214.730469 C 194.90625 214.566406 194.578125 214.371094 194.269531 214.140625 C 193.960938 213.910156 193.679688 213.652344 193.425781 213.363281 L 183.839844 203.144531 C 183.589844 202.875 183.367188 202.585938 183.171875 202.277344 C 182.976562 201.964844 182.8125 201.640625 182.679688 201.300781 C 182.546875 200.957031 182.445312 200.609375 182.375 200.25 C 182.308594 199.886719 182.273438 199.523438 182.273438 199.160156 C 182.273438 198.792969 182.308594 198.429688 182.375 198.070312 C 182.445312 197.710938 182.546875 197.359375 182.679688 197.019531 C 182.8125 196.675781 182.976562 196.351562 183.171875 196.042969 C 183.367188 195.730469 183.589844 195.441406 183.839844 195.171875 L 193.417969 184.835938 C 193.683594 184.5625 193.972656 184.316406 194.289062 184.101562 C 194.601562 183.882812 194.929688 183.699219 195.28125 183.546875 C 195.628906 183.394531 195.988281 183.277344 196.359375 183.195312 C 196.730469 183.113281 197.109375 183.066406 197.488281 183.054688 C 197.871094 183.046875 198.246094 183.074219 198.621094 183.136719 C 198.996094 183.199219 199.363281 183.296875 199.71875 183.433594 C 200.078125 183.566406 200.417969 183.734375 200.742188 183.933594 C 201.0625 184.132812 201.367188 184.363281 201.644531 184.621094 C 201.929688 184.875 202.183594 185.15625 202.410156 185.460938 C 202.636719 185.765625 202.828125 186.089844 202.992188 186.4375 C 203.152344 186.78125 203.277344 187.136719 203.367188 187.507812 C 203.457031 187.875 203.511719 188.25 203.527344 188.632812 C 203.542969 189.011719 203.519531 189.390625 203.457031 189.765625 C 203.398438 190.140625 203.300781 190.507812 203.167969 190.863281 C 203.035156 191.21875 202.867188 191.558594 202.664062 191.878906 C 202.464844 192.203125 202.230469 192.503906 201.96875 192.777344 L 196.128906 199.152344 L 201.96875 205.386719 C 202.230469 205.667969 202.464844 205.976562 202.664062 206.304688 C 202.867188 206.632812 203.03125 206.980469 203.167969 207.339844 C 203.300781 207.703125 203.398438 208.074219 203.457031 208.453125 C 203.515625 208.835938 203.539062 209.21875 203.523438 209.605469 C 203.507812 209.988281 203.457031 210.371094 203.367188 210.746094 C 203.277344 211.121094 203.152344 211.480469 202.992188 211.832031 C 202.828125 212.183594 202.636719 212.515625 202.410156 212.828125 C 202.183594 213.136719 201.929688 213.425781 201.644531 213.6875 Z M 220.074219 213.6875 C 219.800781 213.953125 219.5 214.191406 219.171875 214.394531 C 218.847656 214.601562 218.507812 214.773438 218.148438 214.910156 C 217.789062 215.042969 217.417969 215.144531 217.039062 215.207031 C 216.660156 215.269531 216.277344 215.292969 215.894531 215.277344 C 215.511719 215.261719 215.132812 215.207031 214.757812 215.117188 C 214.386719 215.023438 214.027344 214.894531 213.679688 214.730469 C 213.332031 214.566406 213.003906 214.371094 212.695312 214.140625 C 212.390625 213.910156 212.105469 213.652344 211.851562 213.363281 L 202.265625 203.144531 C 202.019531 202.875 201.796875 202.585938 201.605469 202.273438 C 201.410156 201.964844 201.25 201.636719 201.117188 201.296875 C 200.984375 200.957031 200.882812 200.605469 200.816406 200.246094 C 200.75 199.886719 200.714844 199.523438 200.714844 199.160156 C 200.714844 198.792969 200.75 198.429688 200.816406 198.070312 C 200.882812 197.710938 200.984375 197.363281 201.117188 197.019531 C 201.25 196.679688 201.410156 196.355469 201.605469 196.042969 C 201.796875 195.734375 202.019531 195.441406 202.265625 195.171875 L 211.851562 184.839844 C 212.117188 184.566406 212.40625 184.324219 212.71875 184.109375 C 213.03125 183.890625 213.363281 183.707031 213.710938 183.554688 C 214.0625 183.402344 214.421875 183.285156 214.792969 183.203125 C 215.164062 183.121094 215.539062 183.074219 215.921875 183.0625 C 216.300781 183.054688 216.679688 183.078125 217.054688 183.144531 C 217.429688 183.207031 217.796875 183.304688 218.152344 183.4375 C 218.507812 183.574219 218.847656 183.738281 219.171875 183.941406 C 219.496094 184.140625 219.796875 184.367188 220.074219 184.625 C 220.359375 184.878906 220.617188 185.160156 220.84375 185.464844 C 221.070312 185.769531 221.265625 186.09375 221.429688 186.441406 C 221.589844 186.785156 221.71875 187.140625 221.808594 187.511719 C 221.898438 187.882812 221.953125 188.257812 221.964844 188.636719 C 221.980469 189.019531 221.957031 189.394531 221.898438 189.773438 C 221.835938 190.148438 221.738281 190.515625 221.605469 190.871094 C 221.46875 191.226562 221.300781 191.566406 221.097656 191.886719 C 220.894531 192.210938 220.664062 192.511719 220.402344 192.785156 L 214.5625 199.15625 L 220.402344 205.390625 C 220.664062 205.675781 220.898438 205.980469 221.101562 206.308594 C 221.300781 206.636719 221.472656 206.980469 221.605469 207.34375 C 221.738281 207.707031 221.835938 208.078125 221.898438 208.457031 C 221.957031 208.839844 221.980469 209.222656 221.964844 209.609375 C 221.949219 209.996094 221.898438 210.375 221.808594 210.75 C 221.714844 211.125 221.589844 211.488281 221.425781 211.839844 C 221.261719 212.1875 221.066406 212.519531 220.839844 212.832031 C 220.613281 213.140625 220.355469 213.425781 220.070312 213.6875 Z M 220.074219 213.6875 " fill-opacity="1" fill-rule="nonzero"/></g><g fill="#000000" fill-opacity="1"><g transform="translate(-0.264418, 219.557184)"><g><path d="M 15.1875 0 C 14.75 0 14.476562 -0.21875 14.375 -0.65625 L 11.28125 -13.40625 C 11.207031 -13.582031 11.140625 -13.671875 11.078125 -13.671875 C 10.941406 -13.671875 10.875 -13.566406 10.875 -13.359375 L 10.875 -0.765625 C 10.875 -0.523438 10.804688 -0.335938 10.671875 -0.203125 C 10.535156 -0.0664062 10.347656 0 10.109375 0 L 2.078125 0 C 1.847656 0 1.664062 -0.0664062 1.53125 -0.203125 C 1.394531 -0.335938 1.328125 -0.523438 1.328125 -0.765625 L 1.328125 -34.796875 C 1.328125 -35.035156 1.394531 -35.222656 1.53125 -35.359375 C 1.664062 -35.492188 1.847656 -35.5625 2.078125 -35.5625 L 13.515625 -35.5625 C 15.546875 -35.5625 17.347656 -35.078125 18.921875 -34.109375 C 20.492188 -33.140625 21.71875 -31.800781 22.59375 -30.09375 C 23.476562 -28.382812 23.921875 -26.429688 23.921875 -24.234375 C 23.921875 -22.367188 23.597656 -20.695312 22.953125 -19.21875 C 22.316406 -17.75 21.390625 -16.554688 20.171875 -15.640625 C 20.035156 -15.546875 19.984375 -15.410156 20.015625 -15.234375 L 24.125 -0.859375 C 24.15625 -0.796875 24.171875 -0.710938 24.171875 -0.609375 C 24.171875 -0.203125 23.9375 0 23.46875 0 Z M 11.171875 -27.375 C 10.972656 -27.375 10.875 -27.273438 10.875 -27.078125 L 10.875 -21.234375 C 10.875 -21.023438 10.972656 -20.921875 11.171875 -20.921875 L 11.828125 -20.921875 C 12.578125 -20.921875 13.1875 -21.203125 13.65625 -21.765625 C 14.132812 -22.328125 14.375 -23.113281 14.375 -24.125 C 14.375 -25.175781 14.144531 -25.976562 13.6875 -26.53125 C 13.226562 -27.09375 12.609375 -27.375 11.828125 -27.375 Z M 11.171875 -27.375 "/></g></g></g><g fill="#000000" fill-opacity="1"><g transform="translate(24.622223, 219.557184)"><g><path d="M 21.640625 -28.140625 C 21.640625 -27.898438 21.570312 -27.710938 21.4375 -27.578125 C 21.300781 -27.441406 21.113281 -27.375 20.875 -27.375 L 11.171875 -27.375 C 10.972656 -27.375 10.875 -27.273438 10.875 -27.078125 L 10.875 -22.203125 C 10.875 -21.992188 10.972656 -21.890625 11.171875 -21.890625 L 16.203125 -21.890625 C 16.441406 -21.890625 16.628906 -21.820312 16.765625 -21.6875 C 16.898438 -21.550781 16.96875 -21.363281 16.96875 -21.125 L 16.96875 -14.484375 C 16.96875 -14.242188 16.898438 -14.054688 16.765625 -13.921875 C 16.628906 -13.785156 16.441406 -13.71875 16.203125 -13.71875 L 11.171875 -13.71875 C 10.972656 -13.71875 10.875 -13.613281 10.875 -13.40625 L 10.875 -8.484375 C 10.875 -8.273438 10.972656 -8.171875 11.171875 -8.171875 L 20.875 -8.171875 C 21.113281 -8.171875 21.300781 -8.101562 21.4375 -7.96875 C 21.570312 -7.832031 21.640625 -7.648438 21.640625 -7.421875 L 21.640625 -0.765625 C 21.640625 -0.523438 21.570312 -0.335938 21.4375 -0.203125 C 21.300781 -0.0664062 21.113281 0 20.875 0 L 2.078125 0 C 1.847656 0 1.664062 -0.0664062 1.53125 -0.203125 C 1.394531 -0.335938 1.328125 -0.523438 1.328125 -0.765625 L 1.328125 -34.796875 C 1.328125 -35.035156 1.394531 -35.222656 1.53125 -35.359375 C 1.664062 -35.492188 1.847656 -35.5625 2.078125 -35.5625 L 20.875 -35.5625 C 21.113281 -35.5625 21.300781 -35.492188 21.4375 -35.359375 C 21.570312 -35.222656 21.640625 -35.035156 21.640625 -34.796875 Z M 21.640625 -28.140625 "/></g></g></g><g fill="#000000" fill-opacity="1"><g transform="translate(47.172564, 219.557184)"><g><path d="M 8.734375 0 C 8.265625 0 7.976562 -0.21875 7.875 -0.65625 L 0.765625 -34.75 L 0.765625 -34.953125 C 0.765625 -35.359375 1 -35.5625 1.46875 -35.5625 L 10.203125 -35.5625 C 10.710938 -35.5625 10.984375 -35.320312 11.015625 -34.84375 L 13.3125 -16.859375 C 13.3125 -16.765625 13.359375 -16.71875 13.453125 -16.71875 C 13.554688 -16.71875 13.609375 -16.765625 13.609375 -16.859375 L 15.703125 -34.84375 C 15.734375 -35.320312 16.003906 -35.5625 16.515625 -35.5625 L 24.984375 -35.5625 C 25.566406 -35.5625 25.804688 -35.289062 25.703125 -34.75 L 18.484375 -0.65625 C 18.390625 -0.21875 18.101562 0 17.625 0 Z M 8.734375 0 "/></g></g></g><g fill="#000000" fill-opacity="1"><g transform="translate(73.63366, 219.557184)"><g><path d="M 21.640625 -28.140625 C 21.640625 -27.898438 21.570312 -27.710938 21.4375 -27.578125 C 21.300781 -27.441406 21.113281 -27.375 20.875 -27.375 L 11.171875 -27.375 C 10.972656 -27.375 10.875 -27.273438 10.875 -27.078125 L 10.875 -22.203125 C 10.875 -21.992188 10.972656 -21.890625 11.171875 -21.890625 L 16.203125 -21.890625 C 16.441406 -21.890625 16.628906 -21.820312 16.765625 -21.6875 C 16.898438 -21.550781 16.96875 -21.363281 16.96875 -21.125 L 16.96875 -14.484375 C 16.96875 -14.242188 16.898438 -14.054688 16.765625 -13.921875 C 16.628906 -13.785156 16.441406 -13.71875 16.203125 -13.71875 L 11.171875 -13.71875 C 10.972656 -13.71875 10.875 -13.613281 10.875 -13.40625 L 10.875 -8.484375 C 10.875 -8.273438 10.972656 -8.171875 11.171875 -8.171875 L 20.875 -8.171875 C 21.113281 -8.171875 21.300781 -8.101562 21.4375 -7.96875 C 21.570312 -7.832031 21.640625 -7.648438 21.640625 -7.421875 L 21.640625 -0.765625 C 21.640625 -0.523438 21.570312 -0.335938 21.4375 -0.203125 C 21.300781 -0.0664062 21.113281 0 20.875 0 L 2.078125 0 C 1.847656 0 1.664062 -0.0664062 1.53125 -0.203125 C 1.394531 -0.335938 1.328125 -0.523438 1.328125 -0.765625 L 1.328125 -34.796875 C 1.328125 -35.035156 1.394531 -35.222656 1.53125 -35.359375 C 1.664062 -35.492188 1.847656 -35.5625 2.078125 -35.5625 L 20.875 -35.5625 C 21.113281 -35.5625 21.300781 -35.492188 21.4375 -35.359375 C 21.570312 -35.222656 21.640625 -35.035156 21.640625 -34.796875 Z M 21.640625 -28.140625 "/></g></g></g><g fill="#000000" fill-opacity="1"><g transform="translate(96.184001, 219.557184)"><g><path d="M 15.1875 0 C 14.75 0 14.476562 -0.21875 14.375 -0.65625 L 11.28125 -13.40625 C 11.207031 -13.582031 11.140625 -13.671875 11.078125 -13.671875 C 10.941406 -13.671875 10.875 -13.566406 10.875 -13.359375 L 10.875 -0.765625 C 10.875 -0.523438 10.804688 -0.335938 10.671875 -0.203125 C 10.535156 -0.0664062 10.347656 0 10.109375 0 L 2.078125 0 C 1.847656 0 1.664062 -0.0664062 1.53125 -0.203125 C 1.394531 -0.335938 1.328125 -0.523438 1.328125 -0.765625 L 1.328125 -34.796875 C 1.328125 -35.035156 1.394531 -35.222656 1.53125 -35.359375 C 1.664062 -35.492188 1.847656 -35.5625 2.078125 -35.5625 L 13.515625 -35.5625 C 15.546875 -35.5625 17.347656 -35.078125 18.921875 -34.109375 C 20.492188 -33.140625 21.71875 -31.800781 22.59375 -30.09375 C 23.476562 -28.382812 23.921875 -26.429688 23.921875 -24.234375 C 23.921875 -22.367188 23.597656 -20.695312 22.953125 -19.21875 C 22.316406 -17.75 21.390625 -16.554688 20.171875 -15.640625 C 20.035156 -15.546875 19.984375 -15.410156 20.015625 -15.234375 L 24.125 -0.859375 C 24.15625 -0.796875 24.171875 -0.710938 24.171875 -0.609375 C 24.171875 -0.203125 23.9375 0 23.46875 0 Z M 11.171875 -27.375 C 10.972656 -27.375 10.875 -27.273438 10.875 -27.078125 L 10.875 -21.234375 C 10.875 -21.023438 10.972656 -20.921875 11.171875 -20.921875 L 11.828125 -20.921875 C 12.578125 -20.921875 13.1875 -21.203125 13.65625 -21.765625 C 14.132812 -22.328125 14.375 -23.113281 14.375 -24.125 C 14.375 -25.175781 14.144531 -25.976562 13.6875 -26.53125 C 13.226562 -27.09375 12.609375 -27.375 11.828125 -27.375 Z M 11.171875 -27.375 "/></g></g></g><g fill="#000000" fill-opacity="1"><g transform="translate(121.070641, 219.557184)"><g><path d="M 11.9375 0.40625 C 9.769531 0.40625 7.875 0 6.25 -0.8125 C 4.625 -1.625 3.363281 -2.75 2.46875 -4.1875 C 1.570312 -5.625 1.125 -7.273438 1.125 -9.140625 L 1.125 -10.71875 C 1.125 -10.957031 1.191406 -11.144531 1.328125 -11.28125 C 1.460938 -11.414062 1.644531 -11.484375 1.875 -11.484375 L 9.796875 -11.484375 C 10.035156 -11.484375 10.222656 -11.414062 10.359375 -11.28125 C 10.492188 -11.144531 10.5625 -10.957031 10.5625 -10.71875 L 10.5625 -9.59375 C 10.5625 -9.050781 10.695312 -8.609375 10.96875 -8.265625 C 11.238281 -7.929688 11.578125 -7.765625 11.984375 -7.765625 C 12.390625 -7.765625 12.726562 -7.914062 13 -8.21875 C 13.269531 -8.53125 13.40625 -8.921875 13.40625 -9.390625 C 13.40625 -9.972656 13.132812 -10.539062 12.59375 -11.09375 C 12.050781 -11.65625 10.914062 -12.546875 9.1875 -13.765625 C 7.5 -14.953125 6.101562 -16.035156 5 -17.015625 C 3.90625 -17.992188 2.953125 -19.226562 2.140625 -20.71875 C 1.328125 -22.207031 0.921875 -23.921875 0.921875 -25.859375 C 0.921875 -27.859375 1.367188 -29.617188 2.265625 -31.140625 C 3.160156 -32.660156 4.425781 -33.84375 6.0625 -34.6875 C 7.707031 -35.539062 9.597656 -35.96875 11.734375 -35.96875 C 13.898438 -35.96875 15.800781 -35.539062 17.4375 -34.6875 C 19.082031 -33.84375 20.351562 -32.660156 21.25 -31.140625 C 22.15625 -29.617188 22.609375 -27.859375 22.609375 -25.859375 L 22.609375 -24.734375 C 22.609375 -24.492188 22.539062 -24.304688 22.40625 -24.171875 C 22.269531 -24.035156 22.082031 -23.96875 21.84375 -23.96875 L 13.96875 -23.96875 C 13.726562 -23.96875 13.539062 -24.035156 13.40625 -24.171875 C 13.269531 -24.304688 13.203125 -24.492188 13.203125 -24.734375 L 13.203125 -26.0625 C 13.203125 -26.570312 13.066406 -26.984375 12.796875 -27.296875 C 12.523438 -27.617188 12.171875 -27.78125 11.734375 -27.78125 C 11.296875 -27.78125 10.945312 -27.609375 10.6875 -27.265625 C 10.4375 -26.929688 10.3125 -26.476562 10.3125 -25.90625 C 10.3125 -25.226562 10.582031 -24.578125 11.125 -23.953125 C 11.664062 -23.328125 12.75 -22.421875 14.375 -21.234375 C 16.539062 -19.640625 18.171875 -18.351562 19.265625 -17.375 C 20.367188 -16.394531 21.234375 -15.285156 21.859375 -14.046875 C 22.492188 -12.804688 22.8125 -11.359375 22.8125 -9.703125 C 22.8125 -6.617188 21.8125 -4.160156 19.8125 -2.328125 C 17.8125 -0.503906 15.1875 0.40625 11.9375 0.40625 Z M 11.9375 0.40625 "/></g></g></g><g fill="#000000" fill-opacity="1"><g transform="translate(144.585971, 219.557184)"><g><path d="M 21.640625 -28.140625 C 21.640625 -27.898438 21.570312 -27.710938 21.4375 -27.578125 C 21.300781 -27.441406 21.113281 -27.375 20.875 -27.375 L 11.171875 -27.375 C 10.972656 -27.375 10.875 -27.273438 10.875 -27.078125 L 10.875 -22.203125 C 10.875 -21.992188 10.972656 -21.890625 11.171875 -21.890625 L 16.203125 -21.890625 C 16.441406 -21.890625 16.628906 -21.820312 16.765625 -21.6875 C 16.898438 -21.550781 16.96875 -21.363281 16.96875 -21.125 L 16.96875 -14.484375 C 16.96875 -14.242188 16.898438 -14.054688 16.765625 -13.921875 C 16.628906 -13.785156 16.441406 -13.71875 16.203125 -13.71875 L 11.171875 -13.71875 C 10.972656 -13.71875 10.875 -13.613281 10.875 -13.40625 L 10.875 -8.484375 C 10.875 -8.273438 10.972656 -8.171875 11.171875 -8.171875 L 20.875 -8.171875 C 21.113281 -8.171875 21.300781 -8.101562 21.4375 -7.96875 C 21.570312 -7.832031 21.640625 -7.648438 21.640625 -7.421875 L 21.640625 -0.765625 C 21.640625 -0.523438 21.570312 -0.335938 21.4375 -0.203125 C 21.300781 -0.0664062 21.113281 0 20.875 0 L 2.078125 0 C 1.847656 0 1.664062 -0.0664062 1.53125 -0.203125 C 1.394531 -0.335938 1.328125 -0.523438 1.328125 -0.765625 L 1.328125 -34.796875 C 1.328125 -35.035156 1.394531 -35.222656 1.53125 -35.359375 C 1.664062 -35.492188 1.847656 -35.5625 2.078125 -35.5625 L 20.875 -35.5625 C 21.113281 -35.5625 21.300781 -35.492188 21.4375 -35.359375 C 21.570312 -35.222656 21.640625 -35.035156 21.640625 -34.796875 Z M 21.640625 -28.140625 "/></g></g></g><g fill="#000000" fill-opacity="1"><g transform="translate(167.1262, 219.557184)"><g/></g></g><g fill="#000000" fill-opacity="1"><g transform="translate(177.284009, 219.557184)"><g/></g></g><g fill="#000000" fill-opacity="1"><g transform="translate(187.441819, 219.557184)"><g/></g></g><g fill="#000000" fill-opacity="1"><g transform="translate(197.599628, 219.557184)"><g/></g></g><g fill="#000000" fill-opacity="1"><g transform="translate(207.757438, 219.557184)"><g/></g></g><g fill="#000000" fill-opacity="1"><g transform="translate(217.915247, 219.557184)"><g/></g></g><g fill="#000000" fill-opacity="1"><g transform="translate(228.073057, 219.557184)"><g/></g></g><g fill="#000000" fill-opacity="1"><g transform="translate(238.223848, 219.557184)"><g><path d="M 11.9375 0.40625 C 9.769531 0.40625 7.875 0 6.25 -0.8125 C 4.625 -1.625 3.363281 -2.75 2.46875 -4.1875 C 1.570312 -5.625 1.125 -7.273438 1.125 -9.140625 L 1.125 -10.71875 C 1.125 -10.957031 1.191406 -11.144531 1.328125 -11.28125 C 1.460938 -11.414062 1.644531 -11.484375 1.875 -11.484375 L 9.796875 -11.484375 C 10.035156 -11.484375 10.222656 -11.414062 10.359375 -11.28125 C 10.492188 -11.144531 10.5625 -10.957031 10.5625 -10.71875 L 10.5625 -9.59375 C 10.5625 -9.050781 10.695312 -8.609375 10.96875 -8.265625 C 11.238281 -7.929688 11.578125 -7.765625 11.984375 -7.765625 C 12.390625 -7.765625 12.726562 -7.914062 13 -8.21875 C 13.269531 -8.53125 13.40625 -8.921875 13.40625 -9.390625 C 13.40625 -9.972656 13.132812 -10.539062 12.59375 -11.09375 C 12.050781 -11.65625 10.914062 -12.546875 9.1875 -13.765625 C 7.5 -14.953125 6.101562 -16.035156 5 -17.015625 C 3.90625 -17.992188 2.953125 -19.226562 2.140625 -20.71875 C 1.328125 -22.207031 0.921875 -23.921875 0.921875 -25.859375 C 0.921875 -27.859375 1.367188 -29.617188 2.265625 -31.140625 C 3.160156 -32.660156 4.425781 -33.84375 6.0625 -34.6875 C 7.707031 -35.539062 9.597656 -35.96875 11.734375 -35.96875 C 13.898438 -35.96875 15.800781 -35.539062 17.4375 -34.6875 C 19.082031 -33.84375 20.351562 -32.660156 21.25 -31.140625 C 22.15625 -29.617188 22.609375 -27.859375 22.609375 -25.859375 L 22.609375 -24.734375 C 22.609375 -24.492188 22.539062 -24.304688 22.40625 -24.171875 C 22.269531 -24.035156 22.082031 -23.96875 21.84375 -23.96875 L 13.96875 -23.96875 C 13.726562 -23.96875 13.539062 -24.035156 13.40625 -24.171875 C 13.269531 -24.304688 13.203125 -24.492188 13.203125 -24.734375 L 13.203125 -26.0625 C 13.203125 -26.570312 13.066406 -26.984375 12.796875 -27.296875 C 12.523438 -27.617188 12.171875 -27.78125 11.734375 -27.78125 C 11.296875 -27.78125 10.945312 -27.609375 10.6875 -27.265625 C 10.4375 -26.929688 10.3125 -26.476562 10.3125 -25.90625 C 10.3125 -25.226562 10.582031 -24.578125 11.125 -23.953125 C 11.664062 -23.328125 12.75 -22.421875 14.375 -21.234375 C 16.539062 -19.640625 18.171875 -18.351562 19.265625 -17.375 C 20.367188 -16.394531 21.234375 -15.285156 21.859375 -14.046875 C 22.492188 -12.804688 22.8125 -11.359375 22.8125 -9.703125 C 22.8125 -6.617188 21.8125 -4.160156 19.8125 -2.328125 C 17.8125 -0.503906 15.1875 0.40625 11.9375 0.40625 Z M 11.9375 0.40625 "/></g></g></g><g fill="#000000" fill-opacity="1"><g transform="translate(261.739177, 219.557184)"><g><path d="M 23.671875 -35.5625 C 23.910156 -35.5625 24.097656 -35.492188 24.234375 -35.359375 C 24.367188 -35.222656 24.4375 -35.035156 24.4375 -34.796875 L 24.4375 -28.140625 C 24.4375 -27.898438 24.367188 -27.710938 24.234375 -27.578125 C 24.097656 -27.441406 23.910156 -27.375 23.671875 -27.375 L 17.671875 -27.375 C 17.472656 -27.375 17.375 -27.273438 17.375 -27.078125 L 17.375 -0.765625 C 17.375 -0.523438 17.304688 -0.335938 17.171875 -0.203125 C 17.035156 -0.0664062 16.847656 0 16.609375 0 L 8.578125 0 C 8.347656 0 8.164062 -0.0664062 8.03125 -0.203125 C 7.894531 -0.335938 7.828125 -0.523438 7.828125 -0.765625 L 7.828125 -27.078125 C 7.828125 -27.273438 7.722656 -27.375 7.515625 -27.375 L 1.671875 -27.375 C 1.441406 -27.375 1.257812 -27.441406 1.125 -27.578125 C 0.988281 -27.710938 0.921875 -27.898438 0.921875 -28.140625 L 0.921875 -34.796875 C 0.921875 -35.035156 0.988281 -35.222656 1.125 -35.359375 C 1.257812 -35.492188 1.441406 -35.5625 1.671875 -35.5625 Z M 23.671875 -35.5625 "/></g></g></g><g fill="#000000" fill-opacity="1"><g transform="translate(287.082918, 219.557184)"><g><path d="M 15.1875 0 C 14.75 0 14.476562 -0.21875 14.375 -0.65625 L 11.28125 -13.40625 C 11.207031 -13.582031 11.140625 -13.671875 11.078125 -13.671875 C 10.941406 -13.671875 10.875 -13.566406 10.875 -13.359375 L 10.875 -0.765625 C 10.875 -0.523438 10.804688 -0.335938 10.671875 -0.203125 C 10.535156 -0.0664062 10.347656 0 10.109375 0 L 2.078125 0 C 1.847656 0 1.664062 -0.0664062 1.53125 -0.203125 C 1.394531 -0.335938 1.328125 -0.523438 1.328125 -0.765625 L 1.328125 -34.796875 C 1.328125 -35.035156 1.394531 -35.222656 1.53125 -35.359375 C 1.664062 -35.492188 1.847656 -35.5625 2.078125 -35.5625 L 13.515625 -35.5625 C 15.546875 -35.5625 17.347656 -35.078125 18.921875 -34.109375 C 20.492188 -33.140625 21.71875 -31.800781 22.59375 -30.09375 C 23.476562 -28.382812 23.921875 -26.429688 23.921875 -24.234375 C 23.921875 -22.367188 23.597656 -20.695312 22.953125 -19.21875 C 22.316406 -17.75 21.390625 -16.554688 20.171875 -15.640625 C 20.035156 -15.546875 19.984375 -15.410156 20.015625 -15.234375 L 24.125 -0.859375 C 24.15625 -0.796875 24.171875 -0.710938 24.171875 -0.609375 C 24.171875 -0.203125 23.9375 0 23.46875 0 Z M 11.171875 -27.375 C 10.972656 -27.375 10.875 -27.273438 10.875 -27.078125 L 10.875 -21.234375 C 10.875 -21.023438 10.972656 -20.921875 11.171875 -20.921875 L 11.828125 -20.921875 C 12.578125 -20.921875 13.1875 -21.203125 13.65625 -21.765625 C 14.132812 -22.328125 14.375 -23.113281 14.375 -24.125 C 14.375 -25.175781 14.144531 -25.976562 13.6875 -26.53125 C 13.226562 -27.09375 12.609375 -27.375 11.828125 -27.375 Z M 11.171875 -27.375 "/></g></g></g><g fill="#000000" fill-opacity="1"><g transform="translate(311.969558, 219.557184)"><g><path d="M 2.078125 0 C 1.847656 0 1.664062 -0.0664062 1.53125 -0.203125 C 1.394531 -0.335938 1.328125 -0.523438 1.328125 -0.765625 L 1.328125 -34.796875 C 1.328125 -35.035156 1.394531 -35.222656 1.53125 -35.359375 C 1.664062 -35.492188 1.847656 -35.5625 2.078125 -35.5625 L 10.109375 -35.5625 C 10.347656 -35.5625 10.535156 -35.492188 10.671875 -35.359375 C 10.804688 -35.222656 10.875 -35.035156 10.875 -34.796875 L 10.875 -0.765625 C 10.875 -0.523438 10.804688 -0.335938 10.671875 -0.203125 C 10.535156 -0.0664062 10.347656 0 10.109375 0 Z M 2.078125 0 "/></g></g></g><g fill="#000000" fill-opacity="1"><g transform="translate(324.158934, 219.557184)"><g><path d="M 16.046875 -34.796875 C 16.046875 -35.035156 16.113281 -35.222656 16.25 -35.359375 C 16.382812 -35.492188 16.570312 -35.5625 16.8125 -35.5625 L 24.734375 -35.5625 C 24.972656 -35.5625 25.160156 -35.492188 25.296875 -35.359375 C 25.429688 -35.222656 25.5 -35.035156 25.5 -34.796875 L 25.5 -0.765625 C 25.5 -0.523438 25.429688 -0.335938 25.296875 -0.203125 C 25.160156 -0.0664062 24.972656 0 24.734375 0 L 15.703125 0 C 15.253906 0 14.984375 -0.21875 14.890625 -0.65625 L 11.015625 -16.046875 C 10.984375 -16.148438 10.914062 -16.203125 10.8125 -16.203125 C 10.71875 -16.203125 10.671875 -16.132812 10.671875 -16 L 10.765625 -0.765625 C 10.765625 -0.523438 10.695312 -0.335938 10.5625 -0.203125 C 10.425781 -0.0664062 10.238281 0 10 0 L 2.078125 0 C 1.847656 0 1.664062 -0.0664062 1.53125 -0.203125 C 1.394531 -0.335938 1.328125 -0.523438 1.328125 -0.765625 L 1.328125 -34.796875 C 1.328125 -35.035156 1.394531 -35.222656 1.53125 -35.359375 C 1.664062 -35.492188 1.847656 -35.5625 2.078125 -35.5625 L 11.015625 -35.5625 C 11.460938 -35.5625 11.734375 -35.335938 11.828125 -34.890625 L 15.75 -19.453125 C 15.78125 -19.316406 15.847656 -19.25 15.953125 -19.25 C 16.054688 -19.25 16.109375 -19.316406 16.109375 -19.453125 Z M 16.046875 -34.796875 "/></g></g></g><g fill="#000000" fill-opacity="1"><g transform="translate(350.975552, 219.557184)"><g><path d="M 12.140625 0.40625 C 8.785156 0.40625 6.09375 -0.53125 4.0625 -2.40625 C 2.03125 -4.289062 1.015625 -6.804688 1.015625 -9.953125 L 1.015625 -25.65625 C 1.015625 -28.800781 2.03125 -31.304688 4.0625 -33.171875 C 6.09375 -35.035156 8.785156 -35.96875 12.140625 -35.96875 C 14.335938 -35.96875 16.273438 -35.539062 17.953125 -34.6875 C 19.628906 -33.84375 20.929688 -32.632812 21.859375 -31.0625 C 22.796875 -29.488281 23.265625 -27.648438 23.265625 -25.546875 L 23.265625 -23.875 C 23.265625 -23.632812 23.195312 -23.445312 23.0625 -23.3125 C 22.925781 -23.175781 22.738281 -23.109375 22.5 -23.109375 L 14.484375 -23.109375 C 14.242188 -23.109375 14.054688 -23.175781 13.921875 -23.3125 C 13.785156 -23.445312 13.71875 -23.632812 13.71875 -23.875 L 13.71875 -25.65625 C 13.71875 -26.300781 13.570312 -26.816406 13.28125 -27.203125 C 13 -27.585938 12.617188 -27.78125 12.140625 -27.78125 C 11.660156 -27.78125 11.273438 -27.585938 10.984375 -27.203125 C 10.703125 -26.816406 10.5625 -26.300781 10.5625 -25.65625 L 10.5625 -9.90625 C 10.5625 -9.257812 10.703125 -8.738281 10.984375 -8.34375 C 11.273438 -7.957031 11.660156 -7.765625 12.140625 -7.765625 C 12.617188 -7.765625 13 -7.957031 13.28125 -8.34375 C 13.570312 -8.738281 13.71875 -9.257812 13.71875 -9.90625 L 13.71875 -12.390625 C 13.71875 -12.597656 13.613281 -12.703125 13.40625 -12.703125 L 13 -12.703125 C 12.769531 -12.703125 12.582031 -12.769531 12.4375 -12.90625 C 12.300781 -13.039062 12.234375 -13.226562 12.234375 -13.46875 L 12.234375 -19.296875 C 12.234375 -19.535156 12.300781 -19.722656 12.4375 -19.859375 C 12.582031 -19.992188 12.769531 -20.0625 13 -20.0625 L 22.5 -20.0625 C 22.738281 -20.0625 22.925781 -19.992188 23.0625 -19.859375 C 23.195312 -19.722656 23.265625 -19.535156 23.265625 -19.296875 L 23.265625 -9.953125 C 23.265625 -7.890625 22.796875 -6.070312 21.859375 -4.5 C 20.929688 -2.925781 19.628906 -1.710938 17.953125 -0.859375 C 16.273438 -0.015625 14.335938 0.40625 12.140625 0.40625 Z M 12.140625 0.40625 "/></g></g></g></svg>